<svg xmlns="http://www.w3.org/2000/svg" xmlns:xlink="http://www.w3.org/1999/xlink" width="500" zoomAndPan="magnify" viewBox="0 0 375 374.999991" height="500" preserveAspectRatio="xMidYMid meet" version="1.0"><defs><g/><clipPath id="0934d97c2c"><path d="M 52 139 L 131.546875 139 L 131.546875 235 L 52 235 Z M 52 139 " clip-rule="nonzero"/></clipPath></defs><rect x="-37.5" width="450" fill="#ffffff" y="-37.499999" height="449.999989" fill-opacity="1"/><rect x="-37.5" width="450" fill="#ffffff" y="-37.499999" height="449.999989" fill-opacity="1"/><g clip-path="url(#0934d97c2c)"><path fill="#f39200" d="M 130.800781 165.703125 C 129.402344 163.511719 127.136719 164.53125 119.429688 162.304688 C 117.34375 161.699219 114.933594 161.207031 113.40625 159.554688 C 112.078125 158.109375 111.429688 156.039062 110.515625 154.40625 C 107.605469 149.230469 97.519531 147.457031 97.519531 147.457031 C 97.519531 147.457031 96.5 154.632812 96.5 154.632812 C 96.101562 157.425781 94.105469 163.058594 91.207031 164.324219 C 92.183594 161.867188 93.492188 159.71875 93.742188 156.976562 C 93.742188 156.949219 94.535156 148.167969 96.273438 144.09375 C 99.917969 135.535156 86.007812 140.15625 82.933594 141.878906 C 79.25 143.9375 74.320312 148.546875 78.679688 152.746094 C 79.777344 153.804688 82.742188 156.074219 84.382812 155.644531 C 81.230469 156.472656 76.125 155.511719 74.988281 152.027344 C 75.09375 152.355469 71.0625 156.398438 70.628906 156.96875 C 69.242188 158.789062 67.996094 160.714844 66.90625 162.722656 C 65.941406 164.496094 64.90625 166.417969 64.269531 168.332031 C 63.539062 170.53125 63.414062 172.847656 61.960938 174.765625 C 60.5 176.699219 59.066406 178.609375 57.839844 180.707031 C 52.851562 189.253906 50.546875 198.199219 53.011719 207.933594 C 54.640625 214.363281 57.890625 220.378906 62.5 225.160156 C 64.730469 227.472656 67.265625 229.410156 69.992188 231.089844 C 71.503906 232.023438 73.121094 232.703125 74.796875 233.273438 C 76.21875 233.761719 78.328125 233.960938 79.574219 234.777344 C 66.09375 225.96875 55.296875 212.238281 58.570312 195.359375 C 60.910156 183.269531 67.070312 178.285156 67.070312 178.285156 C 66.59375 178.667969 67.027344 182.507812 67.097656 183.171875 C 67.292969 184.972656 67.960938 187.566406 69.59375 188.582031 C 68.820312 185.308594 68 182.070312 68.621094 178.699219 C 69.25 175.289062 70.902344 172.117188 72.84375 169.28125 C 75.046875 166.0625 78.34375 163.820312 81.296875 167.726562 C 81.730469 168.300781 84.082031 173.527344 84.210938 173.523438 C 85.820312 173.507812 87.765625 174.726562 89.339844 174.246094 C 91.953125 173.453125 94.164062 169.871094 96.425781 168.339844 C 97.390625 167.691406 98.570312 167.335938 97.753906 169.09375 C 96.792969 171.164062 94.898438 173.191406 94.160156 175.28125 C 93.652344 176.71875 94.226562 176.492188 95.652344 177.277344 C 96.734375 177.871094 97.785156 178.519531 98.714844 179.335938 C 101.722656 181.96875 101.390625 188.730469 105.226562 190.234375 C 104.785156 186.488281 106.339844 182.566406 110.054688 181.203125 C 115.710938 179.125 121.585938 182.523438 126.214844 177.300781 C 128.246094 175.007812 128.210938 172.339844 129.546875 169.78125 C 130.121094 168.683594 131.640625 167.023438 130.800781 165.703125 Z M 105.566406 163.246094 C 104.398438 163.246094 103.449219 161.960938 103.449219 160.375 C 103.449219 158.792969 104.398438 157.503906 105.566406 157.503906 C 106.734375 157.503906 107.679688 158.792969 107.679688 160.375 C 107.679688 161.960938 106.734375 163.246094 105.566406 163.246094 Z M 105.566406 163.246094 " fill-opacity="1" fill-rule="nonzero"/></g><path fill="#f39200" d="M 77.761719 188.179688 C 72.679688 183.554688 72.21875 175 76.332031 169.511719 C 78.128906 167.113281 80.148438 168.757812 80.933594 171.257812 C 81.820312 174.074219 83.433594 176.414062 85.34375 178.582031 C 85.035156 178.230469 81.632812 180.449219 81.179688 180.796875 C 79.84375 181.820312 78.816406 183.09375 78.246094 184.695312 C 78.046875 185.261719 77.109375 187.589844 77.761719 188.179688 Z M 77.761719 188.179688 " fill-opacity="1" fill-rule="nonzero"/><path fill="#f39200" d="M 89.925781 185.839844 C 90.59375 186.03125 92.789062 184.394531 93.820312 184.429688 C 96.734375 184.523438 97.488281 188.648438 98.984375 190.445312 C 97.945312 190.386719 96.6875 190.644531 95.671875 190.386719 C 92.910156 189.691406 92.347656 186.53125 89.925781 185.839844 Z M 89.925781 185.839844 " fill-opacity="1" fill-rule="nonzero"/><path fill="#f39200" d="M 80.667969 194.84375 C 81.671875 193.628906 86.917969 193.617188 88.414062 193.566406 C 91.183594 193.46875 93.8125 193.910156 96.429688 194.808594 C 96.167969 193.988281 95.089844 193.210938 94.265625 192.765625 C 90.652344 190.816406 83.394531 191.53125 80.667969 194.84375 Z M 80.667969 194.84375 " fill-opacity="1" fill-rule="nonzero"/><path fill="#f39200" d="M 82.828125 198.492188 C 86.8125 195.636719 92.71875 194.464844 97.335938 196.378906 C 95.644531 196.128906 93.992188 196.664062 92.320312 196.828125 C 89.105469 197.136719 85.96875 198.117188 82.828125 198.492188 Z M 82.828125 198.492188 " fill-opacity="1" fill-rule="nonzero"/><path fill="#f39200" d="M 98.667969 197.871094 C 96.613281 197.335938 94.316406 197.957031 92.414062 198.753906 C 91.3125 199.214844 90.261719 199.789062 89.269531 200.453125 C 88.636719 200.875 87.449219 202.292969 86.769531 202.433594 C 88.75 202.03125 90.691406 200.714844 92.574219 199.960938 C 94.570312 199.160156 96.59375 198.449219 98.667969 197.871094 Z M 98.667969 197.871094 " fill-opacity="1" fill-rule="nonzero"/><path fill="#f39200" d="M 114.632812 195.488281 C 114.632812 195.488281 110.324219 195.867188 108.285156 197.085938 C 108.285156 197.085938 106.773438 194.257812 114.632812 195.488281 Z M 114.632812 195.488281 " fill-opacity="1" fill-rule="nonzero"/><path fill="#f39200" d="M 108.167969 199.0625 L 108.167969 197.929688 C 108.167969 197.929688 113.421875 197.703125 114.632812 199.515625 C 114.632812 199.515625 111.453125 198.382812 108.167969 199.0625 Z M 108.167969 199.0625 " fill-opacity="1" fill-rule="nonzero"/><path fill="#f39200" d="M 108.167969 200.15625 C 108.167969 200.15625 111.761719 201.480469 112.363281 202.992188 C 112.363281 202.992188 108.890625 201.027344 107.53125 201.253906 Z M 108.167969 200.15625 " fill-opacity="1" fill-rule="nonzero"/><path fill="#f39200" d="M 104.660156 196.132812 C 104.699219 195.503906 102.332031 195.152344 103.035156 193.734375 C 103.269531 193.261719 103.867188 193.121094 104.386719 193.046875 C 105.15625 192.9375 105.964844 192.863281 106.6875 193.144531 C 106.835938 193.203125 106.980469 193.277344 107.089844 193.390625 C 107.210938 193.519531 107.28125 193.6875 107.324219 193.855469 C 107.640625 195.074219 106.398438 196.171875 106.339844 197.421875 C 106.226562 199.917969 105.085938 201.472656 104.082031 203.6875 C 100.054688 212.558594 103.3125 224.257812 109.789062 231.121094 C 111.546875 232.984375 113.554688 234.542969 115.6875 235.945312 C 114.472656 235.589844 113.253906 235.789062 112.035156 235.542969 C 103.148438 233.734375 94.136719 228.78125 88.988281 221.148438 C 87.359375 218.734375 86.082031 215.890625 85.890625 212.953125 C 85.738281 210.632812 86.492188 208.320312 88.242188 206.730469 C 90.273438 204.890625 93.105469 204.8125 95.695312 204.9375 C 98.347656 205.066406 100.835938 204.488281 102.777344 202.53125 C 104.609375 200.691406 104.511719 198.542969 104.660156 196.132812 Z M 104.660156 196.132812 " fill-opacity="1" fill-rule="nonzero"/><g fill="#000000" fill-opacity="1"><g transform="translate(116.342282, 206.947004)"><g><path d="M 10.046875 -22.625 L 10.046875 -20.046875 L 6.21875 -20.046875 L 6.21875 0 L 3.421875 0 L 3.421875 -20.046875 L -0.359375 -20.046875 L -0.359375 -22.625 L 2.984375 -22.625 C 2.597656 -23.082031 2.203125 -23.566406 1.796875 -24.078125 C 1.398438 -24.585938 1.046875 -25.097656 0.734375 -25.609375 C 1.554688 -27.035156 2.4375 -28.335938 3.375 -29.515625 C 4.320312 -30.691406 5.4375 -31.625 6.71875 -32.3125 C 8.007812 -33.007812 9.566406 -33.359375 11.390625 -33.359375 C 13.109375 -33.359375 14.726562 -33.078125 16.25 -32.515625 C 17.78125 -31.960938 19.3125 -31.179688 20.84375 -30.171875 C 22.375 -29.160156 23.972656 -27.96875 25.640625 -26.59375 L 24.109375 -24.625 C 22.441406 -25.976562 20.929688 -27.101562 19.578125 -28 C 18.234375 -28.90625 16.945312 -29.582031 15.71875 -30.03125 C 14.5 -30.476562 13.203125 -30.703125 11.828125 -30.703125 C 9.804688 -30.703125 8.191406 -30.191406 6.984375 -29.171875 C 5.773438 -28.148438 4.734375 -26.828125 3.859375 -25.203125 C 4.046875 -24.835938 4.3125 -24.4375 4.65625 -24 C 5 -23.570312 5.382812 -23.113281 5.8125 -22.625 Z M 10.046875 -22.625 "/></g></g></g><g fill="#000000" fill-opacity="1"><g transform="translate(126.014908, 206.947004)"><g><path d="M 22.984375 -22.625 L 22.984375 -20.046875 L 19.171875 -20.046875 L 19.171875 0 L 16.375 0 L 16.375 -5.859375 C 15.207031 -7.335938 13.929688 -8.570312 12.546875 -9.5625 C 11.160156 -10.5625 9.816406 -11.0625 8.515625 -11.0625 C 7.617188 -11.0625 6.859375 -10.828125 6.234375 -10.359375 C 5.617188 -9.898438 5.3125 -9.210938 5.3125 -8.296875 C 5.3125 -6.929688 6.351562 -5.835938 8.4375 -5.015625 L 7.0625 -2.40625 C 5.582031 -3.03125 4.421875 -3.859375 3.578125 -4.890625 C 2.742188 -5.921875 2.328125 -7.09375 2.328125 -8.40625 C 2.328125 -9.59375 2.609375 -10.570312 3.171875 -11.34375 C 3.742188 -12.125 4.472656 -12.707031 5.359375 -13.09375 C 6.242188 -13.476562 7.148438 -13.671875 8.078125 -13.671875 C 8.265625 -13.671875 8.457031 -13.671875 8.65625 -13.671875 C 8.414062 -14.546875 8.039062 -15.253906 7.53125 -15.796875 C 7.019531 -16.347656 6.257812 -16.789062 5.25 -17.125 C 4.25 -17.46875 2.882812 -17.75 1.15625 -17.96875 L 1.484375 -20.046875 L -0.359375 -20.046875 L -0.359375 -22.625 Z M 11.3125 -13.5 C 11.3125 -13.351562 11.3125 -13.21875 11.3125 -13.09375 C 12.28125 -12.726562 13.179688 -12.21875 14.015625 -11.5625 C 14.859375 -10.90625 15.664062 -10.164062 16.4375 -9.34375 C 16.414062 -9.757812 16.398438 -10.191406 16.390625 -10.640625 C 16.378906 -11.085938 16.375 -11.539062 16.375 -12 L 16.375 -20.046875 L 3.890625 -20.046875 C 6.316406 -19.703125 8.160156 -18.941406 9.421875 -17.765625 C 10.679688 -16.585938 11.3125 -15.164062 11.3125 -13.5 Z M 11.3125 -13.5 "/></g></g></g><g fill="#000000" fill-opacity="1"><g transform="translate(146.814423, 206.947004)"><g><path d="M 18.484375 -22.625 C 18.429688 -23.613281 18.1875 -24.328125 17.75 -24.765625 C 17.3125 -25.203125 16.582031 -25.421875 15.5625 -25.421875 L 10.46875 -25.421875 C 8.894531 -25.421875 7.675781 -25.53125 6.8125 -25.75 C 5.957031 -25.96875 5.226562 -26.304688 4.625 -26.765625 C 3.3125 -27.742188 2.65625 -29.238281 2.65625 -31.25 C 2.65625 -31.5625 2.671875 -31.875 2.703125 -32.1875 C 2.742188 -32.507812 2.789062 -32.835938 2.84375 -33.171875 L 5.53125 -32.984375 C 5.476562 -32.703125 5.441406 -32.441406 5.421875 -32.203125 C 5.398438 -31.972656 5.390625 -31.773438 5.390625 -31.609375 C 5.390625 -31.078125 5.4375 -30.601562 5.53125 -30.1875 C 5.625 -29.78125 5.804688 -29.441406 6.078125 -29.171875 C 6.410156 -28.785156 6.890625 -28.5 7.515625 -28.3125 C 8.148438 -28.132812 9.078125 -28.046875 10.296875 -28.046875 L 14.796875 -28.046875 C 16.085938 -28.046875 17.109375 -27.945312 17.859375 -27.75 C 18.609375 -27.5625 19.25 -27.210938 19.78125 -26.703125 C 20.582031 -25.921875 21.019531 -24.5625 21.09375 -22.625 L 26.265625 -22.625 L 26.265625 -20.046875 L 12.953125 -20.046875 L 12.953125 -13.53125 C 12.953125 -12.175781 13.398438 -11.5 14.296875 -11.5 C 14.992188 -11.5 15.726562 -11.832031 16.5 -12.5 C 17.28125 -13.164062 18.195312 -14.25 19.25 -15.75 L 21.421875 -16.078125 C 22.203125 -14.941406 22.800781 -13.765625 23.21875 -12.546875 C 23.644531 -11.335938 23.859375 -10.125 23.859375 -8.90625 C 23.859375 -7.382812 23.523438 -6.015625 22.859375 -4.796875 C 22.191406 -3.585938 21.207031 -2.628906 19.90625 -1.921875 C 18.613281 -1.222656 17.035156 -0.875 15.171875 -0.875 C 13.035156 -0.875 11.09375 -1.378906 9.34375 -2.390625 C 7.601562 -3.410156 6.046875 -5.097656 4.671875 -7.453125 C 3.304688 -9.804688 2.101562 -12.960938 1.0625 -16.921875 L 3.8125 -17.640625 C 4.6875 -14.265625 5.648438 -11.550781 6.703125 -9.5 C 7.765625 -7.457031 8.972656 -5.96875 10.328125 -5.03125 C 11.691406 -4.101562 13.253906 -3.640625 15.015625 -3.640625 C 16.929688 -3.640625 18.421875 -4.125 19.484375 -5.09375 C 20.554688 -6.0625 21.09375 -7.3125 21.09375 -8.84375 C 21.09375 -9.664062 21.007812 -10.394531 20.84375 -11.03125 C 20.675781 -11.675781 20.429688 -12.226562 20.109375 -12.6875 C 19.171875 -11.382812 18.207031 -10.410156 17.21875 -9.765625 C 16.238281 -9.117188 15.273438 -8.796875 14.328125 -8.796875 C 13.160156 -8.796875 12.226562 -9.113281 11.53125 -9.75 C 11.144531 -10.082031 10.816406 -10.554688 10.546875 -11.171875 C 10.285156 -11.796875 10.15625 -12.835938 10.15625 -14.296875 L 10.15625 -20.046875 L -0.359375 -20.046875 L -0.359375 -22.625 Z M 18.484375 -22.625 "/></g></g></g><g fill="#000000" fill-opacity="1"><g transform="translate(170.893059, 206.947004)"><g/></g></g><g fill="#000000" fill-opacity="1"><g transform="translate(182.907941, 219.932353)"><g><path d="M 6.265625 -4.984375 C 6.265625 -4.554688 6.164062 -4.164062 5.96875 -3.8125 C 5.769531 -3.46875 5.46875 -3.1875 5.0625 -2.96875 C 4.65625 -2.75 4.148438 -2.640625 3.546875 -2.640625 L 2.4375 -2.640625 L 2.4375 0 L 0.65625 0 L 0.65625 -7.359375 L 3.546875 -7.359375 C 4.140625 -7.359375 4.640625 -7.253906 5.046875 -7.046875 C 5.453125 -6.847656 5.753906 -6.570312 5.953125 -6.21875 C 6.160156 -5.863281 6.265625 -5.453125 6.265625 -4.984375 Z M 3.421875 -4.0625 C 3.765625 -4.0625 4.019531 -4.140625 4.1875 -4.296875 C 4.351562 -4.460938 4.4375 -4.691406 4.4375 -4.984375 C 4.4375 -5.285156 4.351562 -5.515625 4.1875 -5.671875 C 4.019531 -5.828125 3.765625 -5.90625 3.421875 -5.90625 L 2.4375 -5.90625 L 2.4375 -4.0625 Z M 3.421875 -4.0625 "/></g></g></g><g fill="#000000" fill-opacity="1"><g transform="translate(189.972846, 219.932353)"><g><path d="M 2.4375 -5.921875 L 2.4375 -4.4375 L 4.84375 -4.4375 L 4.84375 -3.046875 L 2.4375 -3.046875 L 2.4375 -1.4375 L 5.15625 -1.4375 L 5.15625 0 L 0.65625 0 L 0.65625 -7.359375 L 5.15625 -7.359375 L 5.15625 -5.921875 Z M 2.4375 -5.921875 "/></g></g></g><g fill="#000000" fill-opacity="1"><g transform="translate(196.167768, 219.932353)"><g><path d="M 5.9375 -7.359375 L 5.9375 -5.921875 L 4 -5.921875 L 4 0 L 2.203125 0 L 2.203125 -5.921875 L 0.25 -5.921875 L 0.25 -7.359375 Z M 5.9375 -7.359375 "/></g></g></g><g fill="#000000" fill-opacity="1"><g transform="translate(202.886774, 219.932353)"><g><path d="M 3.3125 0.078125 C 2.769531 0.078125 2.285156 -0.0078125 1.859375 -0.1875 C 1.441406 -0.363281 1.101562 -0.625 0.84375 -0.96875 C 0.59375 -1.3125 0.457031 -1.722656 0.4375 -2.203125 L 2.34375 -2.203125 C 2.375 -1.929688 2.46875 -1.722656 2.625 -1.578125 C 2.789062 -1.429688 3.003906 -1.359375 3.265625 -1.359375 C 3.523438 -1.359375 3.734375 -1.421875 3.890625 -1.546875 C 4.046875 -1.671875 4.125 -1.84375 4.125 -2.0625 C 4.125 -2.238281 4.0625 -2.382812 3.9375 -2.5 C 3.8125 -2.625 3.660156 -2.722656 3.484375 -2.796875 C 3.304688 -2.878906 3.050781 -2.96875 2.71875 -3.0625 C 2.25 -3.207031 1.863281 -3.351562 1.5625 -3.5 C 1.257812 -3.644531 1 -3.859375 0.78125 -4.140625 C 0.570312 -4.429688 0.46875 -4.8125 0.46875 -5.28125 C 0.46875 -5.957031 0.710938 -6.488281 1.203125 -6.875 C 1.703125 -7.269531 2.347656 -7.46875 3.140625 -7.46875 C 3.953125 -7.46875 4.601562 -7.269531 5.09375 -6.875 C 5.59375 -6.488281 5.863281 -5.953125 5.90625 -5.265625 L 3.96875 -5.265625 C 3.945312 -5.503906 3.851562 -5.691406 3.6875 -5.828125 C 3.53125 -5.960938 3.328125 -6.03125 3.078125 -6.03125 C 2.859375 -6.03125 2.679688 -5.972656 2.546875 -5.859375 C 2.421875 -5.742188 2.359375 -5.578125 2.359375 -5.359375 C 2.359375 -5.117188 2.46875 -4.929688 2.6875 -4.796875 C 2.914062 -4.671875 3.269531 -4.53125 3.75 -4.375 C 4.21875 -4.207031 4.597656 -4.050781 4.890625 -3.90625 C 5.191406 -3.757812 5.453125 -3.546875 5.671875 -3.265625 C 5.890625 -2.992188 6 -2.632812 6 -2.1875 C 6 -1.769531 5.890625 -1.390625 5.671875 -1.046875 C 5.460938 -0.703125 5.15625 -0.425781 4.75 -0.21875 C 4.34375 -0.0195312 3.863281 0.078125 3.3125 0.078125 Z M 3.3125 0.078125 "/></g></g></g><g fill="#000000" fill-opacity="1"><g transform="translate(209.857342, 219.932353)"><g/></g></g><g fill="#000000" fill-opacity="1"><g transform="translate(212.603769, 219.932353)"><g><path d="M 6.28125 0 L 5.59375 -0.65625 C 4.914062 -0.144531 4.109375 0.109375 3.171875 0.109375 C 2.597656 0.109375 2.101562 0.0195312 1.6875 -0.15625 C 1.269531 -0.34375 0.945312 -0.601562 0.71875 -0.9375 C 0.488281 -1.28125 0.375 -1.679688 0.375 -2.140625 C 0.375 -2.597656 0.5 -3.015625 0.75 -3.390625 C 1 -3.765625 1.367188 -4.070312 1.859375 -4.3125 C 1.679688 -4.53125 1.550781 -4.742188 1.46875 -4.953125 C 1.394531 -5.160156 1.359375 -5.382812 1.359375 -5.625 C 1.359375 -5.976562 1.445312 -6.296875 1.625 -6.578125 C 1.8125 -6.867188 2.078125 -7.09375 2.421875 -7.25 C 2.773438 -7.414062 3.1875 -7.5 3.65625 -7.5 C 4.132812 -7.5 4.539062 -7.410156 4.875 -7.234375 C 5.21875 -7.066406 5.472656 -6.835938 5.640625 -6.546875 C 5.804688 -6.253906 5.882812 -5.929688 5.875 -5.578125 L 4.1875 -5.578125 C 4.1875 -5.765625 4.132812 -5.910156 4.03125 -6.015625 C 3.9375 -6.117188 3.804688 -6.171875 3.640625 -6.171875 C 3.472656 -6.171875 3.332031 -6.117188 3.21875 -6.015625 C 3.101562 -5.921875 3.046875 -5.796875 3.046875 -5.640625 C 3.046875 -5.492188 3.09375 -5.335938 3.1875 -5.171875 C 3.28125 -5.015625 3.429688 -4.832031 3.640625 -4.625 L 5.4375 -2.875 C 5.445312 -2.90625 5.460938 -2.945312 5.484375 -3 C 5.515625 -3.050781 5.539062 -3.109375 5.5625 -3.171875 L 5.953125 -3.828125 L 7.75 -3.828125 L 7.25 -2.921875 C 7.0625 -2.503906 6.84375 -2.109375 6.59375 -1.734375 L 8.359375 0 Z M 3.25 -1.328125 C 3.71875 -1.328125 4.132812 -1.460938 4.5 -1.734375 L 2.859375 -3.3125 C 2.359375 -3.050781 2.109375 -2.703125 2.109375 -2.265625 C 2.109375 -1.992188 2.207031 -1.769531 2.40625 -1.59375 C 2.613281 -1.414062 2.894531 -1.328125 3.25 -1.328125 Z M 3.25 -1.328125 "/></g></g></g><g fill="#000000" fill-opacity="1"><g transform="translate(221.492499, 219.932353)"><g/></g></g><g fill="#000000" fill-opacity="1"><g transform="translate(224.238928, 219.932353)"><g><path d="M 4.125 0.078125 C 3.4375 0.078125 2.800781 -0.0820312 2.21875 -0.40625 C 1.644531 -0.726562 1.1875 -1.175781 0.84375 -1.75 C 0.507812 -2.332031 0.34375 -2.984375 0.34375 -3.703125 C 0.34375 -4.421875 0.507812 -5.066406 0.84375 -5.640625 C 1.1875 -6.210938 1.644531 -6.660156 2.21875 -6.984375 C 2.800781 -7.304688 3.4375 -7.46875 4.125 -7.46875 C 4.820312 -7.46875 5.457031 -7.304688 6.03125 -6.984375 C 6.613281 -6.660156 7.066406 -6.210938 7.390625 -5.640625 C 7.722656 -5.066406 7.890625 -4.421875 7.890625 -3.703125 C 7.890625 -2.984375 7.722656 -2.332031 7.390625 -1.75 C 7.054688 -1.175781 6.601562 -0.726562 6.03125 -0.40625 C 5.457031 -0.0820312 4.820312 0.078125 4.125 0.078125 Z M 4.125 -1.5625 C 4.71875 -1.5625 5.191406 -1.753906 5.546875 -2.140625 C 5.898438 -2.535156 6.078125 -3.054688 6.078125 -3.703125 C 6.078125 -4.347656 5.898438 -4.863281 5.546875 -5.25 C 5.191406 -5.644531 4.71875 -5.84375 4.125 -5.84375 C 3.53125 -5.84375 3.054688 -5.648438 2.703125 -5.265625 C 2.359375 -4.878906 2.1875 -4.359375 2.1875 -3.703125 C 2.1875 -3.046875 2.359375 -2.523438 2.703125 -2.140625 C 3.054688 -1.753906 3.53125 -1.5625 4.125 -1.5625 Z M 4.125 -1.5625 "/></g></g></g><g fill="#000000" fill-opacity="1"><g transform="translate(233.001872, 219.932353)"><g><path d="M 4.40625 0 L 2.875 -2.78125 L 2.4375 -2.78125 L 2.4375 0 L 0.65625 0 L 0.65625 -7.359375 L 3.65625 -7.359375 C 4.238281 -7.359375 4.734375 -7.253906 5.140625 -7.046875 C 5.546875 -6.847656 5.847656 -6.570312 6.046875 -6.21875 C 6.253906 -5.863281 6.359375 -5.472656 6.359375 -5.046875 C 6.359375 -4.554688 6.21875 -4.117188 5.9375 -3.734375 C 5.664062 -3.347656 5.265625 -3.078125 4.734375 -2.921875 L 6.421875 0 Z M 2.4375 -4.046875 L 3.546875 -4.046875 C 3.878906 -4.046875 4.128906 -4.125 4.296875 -4.28125 C 4.460938 -4.445312 4.546875 -4.675781 4.546875 -4.96875 C 4.546875 -5.25 4.460938 -5.46875 4.296875 -5.625 C 4.128906 -5.789062 3.878906 -5.875 3.546875 -5.875 L 2.4375 -5.875 Z M 2.4375 -4.046875 "/></g></g></g><g fill="#000000" fill-opacity="1"><g transform="translate(240.360261, 219.932353)"><g><path d="M 5.53125 -5.03125 C 5.40625 -5.28125 5.21875 -5.46875 4.96875 -5.59375 C 4.71875 -5.71875 4.425781 -5.78125 4.09375 -5.78125 C 3.507812 -5.78125 3.039062 -5.585938 2.6875 -5.203125 C 2.34375 -4.828125 2.171875 -4.320312 2.171875 -3.6875 C 2.171875 -3.007812 2.351562 -2.476562 2.71875 -2.09375 C 3.082031 -1.71875 3.585938 -1.53125 4.234375 -1.53125 C 4.671875 -1.53125 5.039062 -1.640625 5.34375 -1.859375 C 5.65625 -2.085938 5.878906 -2.410156 6.015625 -2.828125 L 3.75 -2.828125 L 3.75 -4.15625 L 7.640625 -4.15625 L 7.640625 -2.484375 C 7.503906 -2.035156 7.273438 -1.617188 6.953125 -1.234375 C 6.640625 -0.847656 6.238281 -0.535156 5.75 -0.296875 C 5.257812 -0.0664062 4.707031 0.046875 4.09375 0.046875 C 3.375 0.046875 2.726562 -0.109375 2.15625 -0.421875 C 1.582031 -0.742188 1.132812 -1.1875 0.8125 -1.75 C 0.5 -2.3125 0.34375 -2.957031 0.34375 -3.6875 C 0.34375 -4.414062 0.5 -5.0625 0.8125 -5.625 C 1.132812 -6.195312 1.578125 -6.640625 2.140625 -6.953125 C 2.710938 -7.273438 3.363281 -7.4375 4.09375 -7.4375 C 4.96875 -7.4375 5.707031 -7.222656 6.3125 -6.796875 C 6.914062 -6.378906 7.316406 -5.789062 7.515625 -5.03125 Z M 5.53125 -5.03125 "/></g></g></g><g fill="#000000" fill-opacity="1"><g transform="translate(248.871647, 219.932353)"><g><path d="M 5.234375 -1.296875 L 2.484375 -1.296875 L 2.046875 0 L 0.171875 0 L 2.828125 -7.359375 L 4.90625 -7.359375 L 7.5625 0 L 5.671875 0 Z M 4.765625 -2.6875 L 3.859375 -5.375 L 2.953125 -2.6875 Z M 4.765625 -2.6875 "/></g></g></g><g fill="#000000" fill-opacity="1"><g transform="translate(257.120989, 219.932353)"><g><path d="M 7.234375 0 L 5.4375 0 L 2.4375 -4.546875 L 2.4375 0 L 0.65625 0 L 0.65625 -7.359375 L 2.4375 -7.359375 L 5.4375 -2.796875 L 5.4375 -7.359375 L 7.234375 -7.359375 Z M 7.234375 0 "/></g></g></g><g fill="#000000" fill-opacity="1"><g transform="translate(265.527555, 219.932353)"><g><path d="M 2.4375 -7.359375 L 2.4375 0 L 0.65625 0 L 0.65625 -7.359375 Z M 2.4375 -7.359375 "/></g></g></g><g fill="#000000" fill-opacity="1"><g transform="translate(269.143964, 219.932353)"><g><path d="M 0.34375 -3.6875 C 0.34375 -4.414062 0.5 -5.0625 0.8125 -5.625 C 1.132812 -6.195312 1.578125 -6.640625 2.140625 -6.953125 C 2.703125 -7.273438 3.335938 -7.4375 4.046875 -7.4375 C 4.921875 -7.4375 5.664062 -7.207031 6.28125 -6.75 C 6.90625 -6.289062 7.320312 -5.660156 7.53125 -4.859375 L 5.5625 -4.859375 C 5.414062 -5.171875 5.207031 -5.40625 4.9375 -5.5625 C 4.675781 -5.726562 4.375 -5.8125 4.03125 -5.8125 C 3.476562 -5.8125 3.03125 -5.617188 2.6875 -5.234375 C 2.34375 -4.847656 2.171875 -4.332031 2.171875 -3.6875 C 2.171875 -3.039062 2.34375 -2.523438 2.6875 -2.140625 C 3.03125 -1.765625 3.476562 -1.578125 4.03125 -1.578125 C 4.375 -1.578125 4.675781 -1.65625 4.9375 -1.8125 C 5.207031 -1.976562 5.414062 -2.210938 5.5625 -2.515625 L 7.53125 -2.515625 C 7.320312 -1.722656 6.90625 -1.097656 6.28125 -0.640625 C 5.664062 -0.179688 4.921875 0.046875 4.046875 0.046875 C 3.335938 0.046875 2.703125 -0.109375 2.140625 -0.421875 C 1.578125 -0.742188 1.132812 -1.1875 0.8125 -1.75 C 0.5 -2.3125 0.34375 -2.957031 0.34375 -3.6875 Z M 0.34375 -3.6875 "/></g></g></g><g fill="#000000" fill-opacity="1"><g transform="translate(277.65535, 219.932353)"><g/></g></g><g fill="#000000" fill-opacity="1"><g transform="translate(280.401779, 219.932353)"><g><path d="M 5.4375 -7.359375 L 5.4375 -5.921875 L 2.4375 -5.921875 L 2.4375 -4.375 L 4.6875 -4.375 L 4.6875 -2.984375 L 2.4375 -2.984375 L 2.4375 0 L 0.65625 0 L 0.65625 -7.359375 Z M 5.4375 -7.359375 "/></g></g></g><g fill="#000000" fill-opacity="1"><g transform="translate(286.659586, 219.932353)"><g><path d="M 4.125 0.078125 C 3.4375 0.078125 2.800781 -0.0820312 2.21875 -0.40625 C 1.644531 -0.726562 1.1875 -1.175781 0.84375 -1.75 C 0.507812 -2.332031 0.34375 -2.984375 0.34375 -3.703125 C 0.34375 -4.421875 0.507812 -5.066406 0.84375 -5.640625 C 1.1875 -6.210938 1.644531 -6.660156 2.21875 -6.984375 C 2.800781 -7.304688 3.4375 -7.46875 4.125 -7.46875 C 4.820312 -7.46875 5.457031 -7.304688 6.03125 -6.984375 C 6.613281 -6.660156 7.066406 -6.210938 7.390625 -5.640625 C 7.722656 -5.066406 7.890625 -4.421875 7.890625 -3.703125 C 7.890625 -2.984375 7.722656 -2.332031 7.390625 -1.75 C 7.054688 -1.175781 6.601562 -0.726562 6.03125 -0.40625 C 5.457031 -0.0820312 4.820312 0.078125 4.125 0.078125 Z M 4.125 -1.5625 C 4.71875 -1.5625 5.191406 -1.753906 5.546875 -2.140625 C 5.898438 -2.535156 6.078125 -3.054688 6.078125 -3.703125 C 6.078125 -4.347656 5.898438 -4.863281 5.546875 -5.25 C 5.191406 -5.644531 4.71875 -5.84375 4.125 -5.84375 C 3.53125 -5.84375 3.054688 -5.648438 2.703125 -5.265625 C 2.359375 -4.878906 2.1875 -4.359375 2.1875 -3.703125 C 2.1875 -3.046875 2.359375 -2.523438 2.703125 -2.140625 C 3.054688 -1.753906 3.53125 -1.5625 4.125 -1.5625 Z M 4.125 -1.5625 "/></g></g></g><g fill="#000000" fill-opacity="1"><g transform="translate(295.42253, 219.932353)"><g><path d="M 4.125 0.078125 C 3.4375 0.078125 2.800781 -0.0820312 2.21875 -0.40625 C 1.644531 -0.726562 1.1875 -1.175781 0.84375 -1.75 C 0.507812 -2.332031 0.34375 -2.984375 0.34375 -3.703125 C 0.34375 -4.421875 0.507812 -5.066406 0.84375 -5.640625 C 1.1875 -6.210938 1.644531 -6.660156 2.21875 -6.984375 C 2.800781 -7.304688 3.4375 -7.46875 4.125 -7.46875 C 4.820312 -7.46875 5.457031 -7.304688 6.03125 -6.984375 C 6.613281 -6.660156 7.066406 -6.210938 7.390625 -5.640625 C 7.722656 -5.066406 7.890625 -4.421875 7.890625 -3.703125 C 7.890625 -2.984375 7.722656 -2.332031 7.390625 -1.75 C 7.054688 -1.175781 6.601562 -0.726562 6.03125 -0.40625 C 5.457031 -0.0820312 4.820312 0.078125 4.125 0.078125 Z M 4.125 -1.5625 C 4.71875 -1.5625 5.191406 -1.753906 5.546875 -2.140625 C 5.898438 -2.535156 6.078125 -3.054688 6.078125 -3.703125 C 6.078125 -4.347656 5.898438 -4.863281 5.546875 -5.25 C 5.191406 -5.644531 4.71875 -5.84375 4.125 -5.84375 C 3.53125 -5.84375 3.054688 -5.648438 2.703125 -5.265625 C 2.359375 -4.878906 2.1875 -4.359375 2.1875 -3.703125 C 2.1875 -3.046875 2.359375 -2.523438 2.703125 -2.140625 C 3.054688 -1.753906 3.53125 -1.5625 4.125 -1.5625 Z M 4.125 -1.5625 "/></g></g></g><g fill="#000000" fill-opacity="1"><g transform="translate(304.185474, 219.932353)"><g><path d="M 3.40625 -7.359375 C 4.1875 -7.359375 4.863281 -7.203125 5.4375 -6.890625 C 6.019531 -6.585938 6.46875 -6.15625 6.78125 -5.59375 C 7.101562 -5.039062 7.265625 -4.40625 7.265625 -3.6875 C 7.265625 -2.957031 7.101562 -2.3125 6.78125 -1.75 C 6.46875 -1.195312 6.019531 -0.765625 5.4375 -0.453125 C 4.851562 -0.148438 4.175781 0 3.40625 0 L 0.65625 0 L 0.65625 -7.359375 Z M 3.296875 -1.546875 C 3.972656 -1.546875 4.5 -1.726562 4.875 -2.09375 C 5.25 -2.46875 5.4375 -3 5.4375 -3.6875 C 5.4375 -4.363281 5.25 -4.890625 4.875 -5.265625 C 4.5 -5.640625 3.972656 -5.828125 3.296875 -5.828125 L 2.4375 -5.828125 L 2.4375 -1.546875 Z M 3.296875 -1.546875 "/></g></g></g><g fill="#f39200" fill-opacity="0.4"><g transform="translate(179.435472, 205.446987)"><g><path d="M 8.9375 -20.125 L 8.9375 -17.828125 L 5.53125 -17.828125 L 5.53125 0 L 3.046875 0 L 3.046875 -17.828125 L -0.328125 -17.828125 L -0.328125 -20.125 L 2.65625 -20.125 C 2.3125 -20.539062 1.957031 -20.972656 1.59375 -21.421875 C 1.238281 -21.867188 0.921875 -22.320312 0.640625 -22.78125 C 1.378906 -24.050781 2.164062 -25.207031 3 -26.25 C 3.84375 -27.300781 4.835938 -28.132812 5.984375 -28.75 C 7.128906 -29.363281 8.507812 -29.671875 10.125 -29.671875 C 11.65625 -29.671875 13.097656 -29.421875 14.453125 -28.921875 C 15.816406 -28.429688 17.175781 -27.738281 18.53125 -26.84375 C 19.894531 -25.945312 21.320312 -24.882812 22.8125 -23.65625 L 21.453125 -21.90625 C 19.960938 -23.113281 18.617188 -24.113281 17.421875 -24.90625 C 16.222656 -25.707031 15.078125 -26.304688 13.984375 -26.703125 C 12.898438 -27.109375 11.742188 -27.3125 10.515625 -27.3125 C 8.722656 -27.3125 7.285156 -26.859375 6.203125 -25.953125 C 5.128906 -25.046875 4.207031 -23.867188 3.4375 -22.421875 C 3.601562 -22.097656 3.835938 -21.742188 4.140625 -21.359375 C 4.441406 -20.972656 4.785156 -20.5625 5.171875 -20.125 Z M 8.9375 -20.125 "/></g></g></g><g fill="#f39200" fill-opacity="0.4"><g transform="translate(188.042035, 205.446987)"><g><path d="M 20.453125 -20.125 L 20.453125 -17.828125 L 17.046875 -17.828125 L 17.046875 0 L 14.5625 0 L 14.5625 -5.203125 C 13.53125 -6.523438 12.394531 -7.628906 11.15625 -8.515625 C 9.925781 -9.398438 8.734375 -9.84375 7.578125 -9.84375 C 6.773438 -9.84375 6.097656 -9.632812 5.546875 -9.21875 C 4.992188 -8.8125 4.71875 -8.195312 4.71875 -7.375 C 4.71875 -6.164062 5.644531 -5.195312 7.5 -4.46875 L 6.28125 -2.140625 C 4.957031 -2.703125 3.925781 -3.441406 3.1875 -4.359375 C 2.445312 -5.273438 2.078125 -6.3125 2.078125 -7.46875 C 2.078125 -8.53125 2.328125 -9.40625 2.828125 -10.09375 C 3.335938 -10.78125 3.984375 -11.296875 4.765625 -11.640625 C 5.554688 -11.992188 6.363281 -12.171875 7.1875 -12.171875 C 7.351562 -12.171875 7.523438 -12.171875 7.703125 -12.171875 C 7.484375 -12.941406 7.144531 -13.566406 6.6875 -14.046875 C 6.238281 -14.535156 5.566406 -14.929688 4.671875 -15.234375 C 3.773438 -15.535156 2.5625 -15.785156 1.03125 -15.984375 L 1.328125 -17.828125 L -0.328125 -17.828125 L -0.328125 -20.125 Z M 10.0625 -12 C 10.0625 -11.875 10.0625 -11.757812 10.0625 -11.65625 C 10.925781 -11.320312 11.726562 -10.863281 12.46875 -10.28125 C 13.21875 -9.707031 13.9375 -9.050781 14.625 -8.3125 C 14.601562 -8.675781 14.585938 -9.054688 14.578125 -9.453125 C 14.566406 -9.859375 14.5625 -10.265625 14.5625 -10.671875 L 14.5625 -17.828125 L 3.46875 -17.828125 C 5.625 -17.523438 7.257812 -16.847656 8.375 -15.796875 C 9.5 -14.753906 10.0625 -13.488281 10.0625 -12 Z M 10.0625 -12 "/></g></g></g><g fill="#f39200" fill-opacity="0.4"><g transform="translate(206.548712, 205.446987)"><g><path d="M 16.4375 -20.125 C 16.394531 -21.007812 16.175781 -21.644531 15.78125 -22.03125 C 15.394531 -22.425781 14.75 -22.625 13.84375 -22.625 L 9.3125 -22.625 C 7.914062 -22.625 6.832031 -22.71875 6.0625 -22.90625 C 5.300781 -23.101562 4.648438 -23.40625 4.109375 -23.8125 C 2.941406 -24.675781 2.359375 -26.003906 2.359375 -27.796875 C 2.359375 -28.078125 2.375 -28.359375 2.40625 -28.640625 C 2.4375 -28.921875 2.476562 -29.210938 2.53125 -29.515625 L 4.921875 -29.34375 C 4.878906 -29.09375 4.847656 -28.863281 4.828125 -28.65625 C 4.804688 -28.445312 4.796875 -28.269531 4.796875 -28.125 C 4.796875 -27.644531 4.835938 -27.222656 4.921875 -26.859375 C 5.003906 -26.492188 5.164062 -26.191406 5.40625 -25.953125 C 5.707031 -25.609375 6.140625 -25.351562 6.703125 -25.1875 C 7.265625 -25.03125 8.082031 -24.953125 9.15625 -24.953125 L 13.171875 -24.953125 C 14.316406 -24.953125 15.222656 -24.863281 15.890625 -24.6875 C 16.554688 -24.519531 17.128906 -24.207031 17.609375 -23.75 C 18.316406 -23.0625 18.703125 -21.851562 18.765625 -20.125 L 23.359375 -20.125 L 23.359375 -17.828125 L 11.515625 -17.828125 L 11.515625 -12.03125 C 11.515625 -10.820312 11.914062 -10.21875 12.71875 -10.21875 C 13.34375 -10.21875 14 -10.515625 14.6875 -11.109375 C 15.382812 -11.703125 16.195312 -12.671875 17.125 -14.015625 L 19.0625 -14.296875 C 19.75 -13.285156 20.28125 -12.238281 20.65625 -11.15625 C 21.039062 -10.082031 21.234375 -9.003906 21.234375 -7.921875 C 21.234375 -6.566406 20.9375 -5.347656 20.34375 -4.265625 C 19.75 -3.191406 18.875 -2.34375 17.71875 -1.71875 C 16.5625 -1.09375 15.15625 -0.78125 13.5 -0.78125 C 11.59375 -0.78125 9.863281 -1.234375 8.3125 -2.140625 C 6.757812 -3.046875 5.375 -4.539062 4.15625 -6.625 C 2.9375 -8.71875 1.863281 -11.523438 0.9375 -15.046875 L 3.390625 -15.6875 C 4.171875 -12.695312 5.03125 -10.289062 5.96875 -8.46875 C 6.90625 -6.644531 7.976562 -5.316406 9.1875 -4.484375 C 10.394531 -3.648438 11.785156 -3.234375 13.359375 -3.234375 C 15.066406 -3.234375 16.394531 -3.664062 17.34375 -4.53125 C 18.289062 -5.394531 18.765625 -6.503906 18.765625 -7.859375 C 18.765625 -8.597656 18.6875 -9.25 18.53125 -9.8125 C 18.382812 -10.382812 18.171875 -10.878906 17.890625 -11.296875 C 17.046875 -10.128906 16.1875 -9.257812 15.3125 -8.6875 C 14.445312 -8.113281 13.59375 -7.828125 12.75 -7.828125 C 11.71875 -7.828125 10.890625 -8.109375 10.265625 -8.671875 C 9.910156 -8.972656 9.613281 -9.398438 9.375 -9.953125 C 9.144531 -10.503906 9.03125 -11.425781 9.03125 -12.71875 L 9.03125 -17.828125 L -0.328125 -17.828125 L -0.328125 -20.125 Z M 16.4375 -20.125 "/></g></g></g><g fill="#f39200" fill-opacity="0.4"><g transform="translate(227.967384, 205.446987)"><g/></g></g><g fill="#f39200" fill-opacity="0.4"><g transform="translate(235.182008, 205.446987)"><g><path d="M 19.609375 -20.125 L 19.609375 -17.828125 L 16.21875 -17.828125 L 16.21875 0 L 13.71875 0 C 13.070312 -1.289062 12.179688 -2.476562 11.046875 -3.5625 C 9.921875 -4.65625 8.625 -5.570312 7.15625 -6.3125 C 5.6875 -7.0625 4.117188 -7.578125 2.453125 -7.859375 L 1.203125 -10.96875 C 3.160156 -12.15625 5.179688 -13.234375 7.265625 -14.203125 C 9.347656 -15.171875 11.5 -16.015625 13.71875 -16.734375 L 13.71875 -17.828125 L -0.328125 -17.828125 L -0.328125 -20.125 Z M 4.203125 -9.84375 C 5.304688 -9.601562 6.472656 -9.195312 7.703125 -8.625 C 8.929688 -8.050781 10.085938 -7.332031 11.171875 -6.46875 C 12.265625 -5.601562 13.144531 -4.613281 13.8125 -3.5 C 13.789062 -3.882812 13.769531 -4.28125 13.75 -4.6875 C 13.726562 -5.101562 13.71875 -5.578125 13.71875 -6.109375 L 13.71875 -14.203125 C 12.164062 -13.660156 10.546875 -13.015625 8.859375 -12.265625 C 7.179688 -11.523438 5.628906 -10.71875 4.203125 -9.84375 Z M 4.203125 -9.84375 "/></g></g></g><g fill="#f39200" fill-opacity="0.4"><g transform="translate(254.465874, 205.446987)"><g><path d="M 8.9375 -20.125 L 8.9375 -17.828125 L 5.53125 -17.828125 L 5.53125 0 L 3.046875 0 L 3.046875 -15.171875 C 2.785156 -15.910156 2.398438 -16.535156 1.890625 -17.046875 C 1.378906 -17.566406 0.726562 -17.828125 -0.0625 -17.828125 L -0.328125 -17.828125 L -0.328125 -20.125 L 0.15625 -20.125 C 0.675781 -20.125 1.210938 -19.953125 1.765625 -19.609375 C 2.316406 -19.265625 2.773438 -18.757812 3.140625 -18.09375 C 3.117188 -18.195312 3.097656 -18.441406 3.078125 -18.828125 C 3.054688 -19.222656 3.046875 -19.5625 3.046875 -19.84375 L 3.046875 -22.265625 L 4.796875 -22.265625 L 5.5 -20.125 Z M 8.9375 -20.125 "/></g></g></g><g fill="#f39200" fill-opacity="0.4"><g transform="translate(261.454002, 205.446987)"><g><path d="M 12.96875 -2.03125 C 11.269531 -2.03125 9.675781 -2.441406 8.1875 -3.265625 C 6.695312 -4.085938 5.335938 -5.445312 4.109375 -7.34375 C 2.878906 -9.238281 1.820312 -11.804688 0.9375 -15.046875 L 3.390625 -15.6875 C 4.109375 -13.039062 4.925781 -10.890625 5.84375 -9.234375 C 6.757812 -7.585938 7.8125 -6.382812 9 -5.625 C 10.1875 -4.875 11.546875 -4.5 13.078125 -4.5 C 16.304688 -4.5 17.921875 -5.890625 17.921875 -8.671875 C 17.921875 -8.972656 17.898438 -9.257812 17.859375 -9.53125 C 17.816406 -9.800781 17.765625 -10.054688 17.703125 -10.296875 C 16.960938 -9.691406 16.179688 -9.207031 15.359375 -8.84375 C 14.546875 -8.488281 13.644531 -8.3125 12.65625 -8.3125 C 11.382812 -8.3125 10.347656 -8.664062 9.546875 -9.375 C 8.742188 -10.09375 8.34375 -11.109375 8.34375 -12.421875 C 8.34375 -13.367188 8.675781 -14.328125 9.34375 -15.296875 C 10.019531 -16.273438 11.15625 -17.140625 12.75 -17.890625 C 12.320312 -17.867188 11.832031 -17.851562 11.28125 -17.84375 C 10.726562 -17.832031 10.179688 -17.828125 9.640625 -17.828125 L -0.328125 -17.828125 L -0.328125 -20.125 L 30 -20.125 L 30 -17.828125 L 19.875 -17.828125 C 19.5 -17.828125 19.148438 -17.832031 18.828125 -17.84375 C 18.503906 -17.851562 18.203125 -17.867188 17.921875 -17.890625 C 18.441406 -17.003906 19.1875 -16.273438 20.15625 -15.703125 C 21.125 -15.140625 22.503906 -14.859375 24.296875 -14.859375 C 24.835938 -14.859375 25.429688 -14.890625 26.078125 -14.953125 L 27.34375 -12.6875 C 26.820312 -11.71875 26.453125 -10.769531 26.234375 -9.84375 C 26.023438 -8.914062 25.921875 -7.847656 25.921875 -6.640625 C 25.921875 -5.578125 26.003906 -4.5625 26.171875 -3.59375 C 26.347656 -2.625 26.640625 -1.535156 27.046875 -0.328125 L 24.625 0.21875 C 24.238281 -1.03125 23.9375 -2.253906 23.71875 -3.453125 C 23.5 -4.648438 23.390625 -5.894531 23.390625 -7.1875 C 23.390625 -8.332031 23.492188 -9.351562 23.703125 -10.25 C 23.910156 -11.15625 24.15625 -11.925781 24.4375 -12.5625 C 22.101562 -12.582031 20.25 -12.988281 18.875 -13.78125 C 17.507812 -14.582031 16.425781 -15.695312 15.625 -17.125 C 14.289062 -16.445312 13.28125 -15.820312 12.59375 -15.25 C 11.914062 -14.6875 11.453125 -14.160156 11.203125 -13.671875 C 10.960938 -13.179688 10.84375 -12.722656 10.84375 -12.296875 C 10.84375 -11.691406 11.015625 -11.257812 11.359375 -11 C 11.703125 -10.738281 12.085938 -10.609375 12.515625 -10.609375 C 13.335938 -10.609375 14.070312 -10.796875 14.71875 -11.171875 C 15.363281 -11.554688 16.097656 -12.101562 16.921875 -12.8125 L 19.703125 -11.8125 C 19.898438 -11.375 20.0625 -10.835938 20.1875 -10.203125 C 20.320312 -9.566406 20.390625 -8.90625 20.390625 -8.21875 C 20.390625 -7.132812 20.144531 -6.125 19.65625 -5.1875 C 19.175781 -4.25 18.390625 -3.488281 17.296875 -2.90625 C 16.203125 -2.320312 14.757812 -2.03125 12.96875 -2.03125 Z M 12.96875 -2.03125 "/></g></g></g><g fill="#f39200" fill-opacity="0.4"><g transform="translate(291.123987, 205.446987)"><g><path d="M 8.9375 -20.125 L 8.9375 -17.828125 L 5.53125 -17.828125 L 5.53125 0 L 3.046875 0 L 3.046875 -15.171875 C 2.785156 -15.910156 2.398438 -16.535156 1.890625 -17.046875 C 1.378906 -17.566406 0.726562 -17.828125 -0.0625 -17.828125 L -0.328125 -17.828125 L -0.328125 -20.125 L 0.15625 -20.125 C 0.675781 -20.125 1.210938 -19.953125 1.765625 -19.609375 C 2.316406 -19.265625 2.773438 -18.757812 3.140625 -18.09375 C 3.117188 -18.195312 3.097656 -18.441406 3.078125 -18.828125 C 3.054688 -19.222656 3.046875 -19.5625 3.046875 -19.84375 L 3.046875 -22.265625 L 4.796875 -22.265625 L 5.5 -20.125 Z M 8.9375 -20.125 "/></g></g></g><g fill="#f39200" fill-opacity="0.4"><g transform="translate(298.112115, 205.446987)"><g><path d="M 19.609375 -20.125 L 19.609375 -17.828125 L 16.21875 -17.828125 L 16.21875 0 L 13.71875 0 C 13.070312 -1.289062 12.179688 -2.476562 11.046875 -3.5625 C 9.921875 -4.65625 8.625 -5.570312 7.15625 -6.3125 C 5.6875 -7.0625 4.117188 -7.578125 2.453125 -7.859375 L 1.203125 -10.96875 C 3.160156 -12.15625 5.179688 -13.234375 7.265625 -14.203125 C 9.347656 -15.171875 11.5 -16.015625 13.71875 -16.734375 L 13.71875 -17.828125 L -0.328125 -17.828125 L -0.328125 -20.125 Z M 4.203125 -9.84375 C 5.304688 -9.601562 6.472656 -9.195312 7.703125 -8.625 C 8.929688 -8.050781 10.085938 -7.332031 11.171875 -6.46875 C 12.265625 -5.601562 13.144531 -4.613281 13.8125 -3.5 C 13.789062 -3.882812 13.769531 -4.28125 13.75 -4.6875 C 13.726562 -5.101562 13.71875 -5.578125 13.71875 -6.109375 L 13.71875 -14.203125 C 12.164062 -13.660156 10.546875 -13.015625 8.859375 -12.265625 C 7.179688 -11.523438 5.628906 -10.71875 4.203125 -9.84375 Z M 5.984375 0.1875 C 5.441406 0.1875 4.984375 0.015625 4.609375 -0.328125 C 4.234375 -0.671875 4.046875 -1.125 4.046875 -1.6875 C 4.046875 -2.25 4.234375 -2.710938 4.609375 -3.078125 C 4.984375 -3.441406 5.441406 -3.625 5.984375 -3.625 C 6.523438 -3.625 6.984375 -3.441406 7.359375 -3.078125 C 7.734375 -2.710938 7.921875 -2.25 7.921875 -1.6875 C 7.921875 -1.125 7.734375 -0.671875 7.359375 -0.328125 C 6.984375 0.015625 6.523438 0.1875 5.984375 0.1875 Z M 5.984375 0.1875 "/></g></g></g><g fill="#f39200" fill-opacity="1"><g transform="translate(179.435472, 205.446987)"><g><path d="M 8.9375 -20.125 L 8.9375 -17.828125 L 5.53125 -17.828125 L 5.53125 0 L 3.046875 0 L 3.046875 -17.828125 L -0.328125 -17.828125 L -0.328125 -20.125 L 2.65625 -20.125 C 2.3125 -20.539062 1.957031 -20.972656 1.59375 -21.421875 C 1.238281 -21.867188 0.921875 -22.320312 0.640625 -22.78125 C 1.378906 -24.050781 2.164062 -25.207031 3 -26.25 C 3.84375 -27.300781 4.835938 -28.132812 5.984375 -28.75 C 7.128906 -29.363281 8.507812 -29.671875 10.125 -29.671875 C 11.65625 -29.671875 13.097656 -29.421875 14.453125 -28.921875 C 15.816406 -28.429688 17.175781 -27.738281 18.53125 -26.84375 C 19.894531 -25.945312 21.320312 -24.882812 22.8125 -23.65625 L 21.453125 -21.90625 C 19.960938 -23.113281 18.617188 -24.113281 17.421875 -24.90625 C 16.222656 -25.707031 15.078125 -26.304688 13.984375 -26.703125 C 12.898438 -27.109375 11.742188 -27.3125 10.515625 -27.3125 C 8.722656 -27.3125 7.285156 -26.859375 6.203125 -25.953125 C 5.128906 -25.046875 4.207031 -23.867188 3.4375 -22.421875 C 3.601562 -22.097656 3.835938 -21.742188 4.140625 -21.359375 C 4.441406 -20.972656 4.785156 -20.5625 5.171875 -20.125 Z M 8.9375 -20.125 "/></g></g></g><g fill="#f39200" fill-opacity="1"><g transform="translate(188.042035, 205.446987)"><g><path d="M 20.453125 -20.125 L 20.453125 -17.828125 L 17.046875 -17.828125 L 17.046875 0 L 14.5625 0 L 14.5625 -5.203125 C 13.53125 -6.523438 12.394531 -7.628906 11.15625 -8.515625 C 9.925781 -9.398438 8.734375 -9.84375 7.578125 -9.84375 C 6.773438 -9.84375 6.097656 -9.632812 5.546875 -9.21875 C 4.992188 -8.8125 4.71875 -8.195312 4.71875 -7.375 C 4.71875 -6.164062 5.644531 -5.195312 7.5 -4.46875 L 6.28125 -2.140625 C 4.957031 -2.703125 3.925781 -3.441406 3.1875 -4.359375 C 2.445312 -5.273438 2.078125 -6.3125 2.078125 -7.46875 C 2.078125 -8.53125 2.328125 -9.40625 2.828125 -10.09375 C 3.335938 -10.78125 3.984375 -11.296875 4.765625 -11.640625 C 5.554688 -11.992188 6.363281 -12.171875 7.1875 -12.171875 C 7.351562 -12.171875 7.523438 -12.171875 7.703125 -12.171875 C 7.484375 -12.941406 7.144531 -13.566406 6.6875 -14.046875 C 6.238281 -14.535156 5.566406 -14.929688 4.671875 -15.234375 C 3.773438 -15.535156 2.5625 -15.785156 1.03125 -15.984375 L 1.328125 -17.828125 L -0.328125 -17.828125 L -0.328125 -20.125 Z M 10.0625 -12 C 10.0625 -11.875 10.0625 -11.757812 10.0625 -11.65625 C 10.925781 -11.320312 11.726562 -10.863281 12.46875 -10.28125 C 13.21875 -9.707031 13.9375 -9.050781 14.625 -8.3125 C 14.601562 -8.675781 14.585938 -9.054688 14.578125 -9.453125 C 14.566406 -9.859375 14.5625 -10.265625 14.5625 -10.671875 L 14.5625 -17.828125 L 3.46875 -17.828125 C 5.625 -17.523438 7.257812 -16.847656 8.375 -15.796875 C 9.5 -14.753906 10.0625 -13.488281 10.0625 -12 Z M 10.0625 -12 "/></g></g></g><g fill="#f39200" fill-opacity="1"><g transform="translate(206.548712, 205.446987)"><g><path d="M 16.4375 -20.125 C 16.394531 -21.007812 16.175781 -21.644531 15.78125 -22.03125 C 15.394531 -22.425781 14.75 -22.625 13.84375 -22.625 L 9.3125 -22.625 C 7.914062 -22.625 6.832031 -22.71875 6.0625 -22.90625 C 5.300781 -23.101562 4.648438 -23.40625 4.109375 -23.8125 C 2.941406 -24.675781 2.359375 -26.003906 2.359375 -27.796875 C 2.359375 -28.078125 2.375 -28.359375 2.40625 -28.640625 C 2.4375 -28.921875 2.476562 -29.210938 2.53125 -29.515625 L 4.921875 -29.34375 C 4.878906 -29.09375 4.847656 -28.863281 4.828125 -28.65625 C 4.804688 -28.445312 4.796875 -28.269531 4.796875 -28.125 C 4.796875 -27.644531 4.835938 -27.222656 4.921875 -26.859375 C 5.003906 -26.492188 5.164062 -26.191406 5.40625 -25.953125 C 5.707031 -25.609375 6.140625 -25.351562 6.703125 -25.1875 C 7.265625 -25.03125 8.082031 -24.953125 9.15625 -24.953125 L 13.171875 -24.953125 C 14.316406 -24.953125 15.222656 -24.863281 15.890625 -24.6875 C 16.554688 -24.519531 17.128906 -24.207031 17.609375 -23.75 C 18.316406 -23.0625 18.703125 -21.851562 18.765625 -20.125 L 23.359375 -20.125 L 23.359375 -17.828125 L 11.515625 -17.828125 L 11.515625 -12.03125 C 11.515625 -10.820312 11.914062 -10.21875 12.71875 -10.21875 C 13.34375 -10.21875 14 -10.515625 14.6875 -11.109375 C 15.382812 -11.703125 16.195312 -12.671875 17.125 -14.015625 L 19.0625 -14.296875 C 19.75 -13.285156 20.28125 -12.238281 20.65625 -11.15625 C 21.039062 -10.082031 21.234375 -9.003906 21.234375 -7.921875 C 21.234375 -6.566406 20.9375 -5.347656 20.34375 -4.265625 C 19.75 -3.191406 18.875 -2.34375 17.71875 -1.71875 C 16.5625 -1.09375 15.15625 -0.78125 13.5 -0.78125 C 11.59375 -0.78125 9.863281 -1.234375 8.3125 -2.140625 C 6.757812 -3.046875 5.375 -4.539062 4.15625 -6.625 C 2.9375 -8.71875 1.863281 -11.523438 0.9375 -15.046875 L 3.390625 -15.6875 C 4.171875 -12.695312 5.03125 -10.289062 5.96875 -8.46875 C 6.90625 -6.644531 7.976562 -5.316406 9.1875 -4.484375 C 10.394531 -3.648438 11.785156 -3.234375 13.359375 -3.234375 C 15.066406 -3.234375 16.394531 -3.664062 17.34375 -4.53125 C 18.289062 -5.394531 18.765625 -6.503906 18.765625 -7.859375 C 18.765625 -8.597656 18.6875 -9.25 18.53125 -9.8125 C 18.382812 -10.382812 18.171875 -10.878906 17.890625 -11.296875 C 17.046875 -10.128906 16.1875 -9.257812 15.3125 -8.6875 C 14.445312 -8.113281 13.59375 -7.828125 12.75 -7.828125 C 11.71875 -7.828125 10.890625 -8.109375 10.265625 -8.671875 C 9.910156 -8.972656 9.613281 -9.398438 9.375 -9.953125 C 9.144531 -10.503906 9.03125 -11.425781 9.03125 -12.71875 L 9.03125 -17.828125 L -0.328125 -17.828125 L -0.328125 -20.125 Z M 16.4375 -20.125 "/></g></g></g><g fill="#f39200" fill-opacity="1"><g transform="translate(227.967384, 205.446987)"><g/></g></g><g fill="#f39200" fill-opacity="1"><g transform="translate(235.182008, 205.446987)"><g><path d="M 19.609375 -20.125 L 19.609375 -17.828125 L 16.21875 -17.828125 L 16.21875 0 L 13.71875 0 C 13.070312 -1.289062 12.179688 -2.476562 11.046875 -3.5625 C 9.921875 -4.65625 8.625 -5.570312 7.15625 -6.3125 C 5.6875 -7.0625 4.117188 -7.578125 2.453125 -7.859375 L 1.203125 -10.96875 C 3.160156 -12.15625 5.179688 -13.234375 7.265625 -14.203125 C 9.347656 -15.171875 11.5 -16.015625 13.71875 -16.734375 L 13.71875 -17.828125 L -0.328125 -17.828125 L -0.328125 -20.125 Z M 4.203125 -9.84375 C 5.304688 -9.601562 6.472656 -9.195312 7.703125 -8.625 C 8.929688 -8.050781 10.085938 -7.332031 11.171875 -6.46875 C 12.265625 -5.601562 13.144531 -4.613281 13.8125 -3.5 C 13.789062 -3.882812 13.769531 -4.28125 13.75 -4.6875 C 13.726562 -5.101562 13.71875 -5.578125 13.71875 -6.109375 L 13.71875 -14.203125 C 12.164062 -13.660156 10.546875 -13.015625 8.859375 -12.265625 C 7.179688 -11.523438 5.628906 -10.71875 4.203125 -9.84375 Z M 4.203125 -9.84375 "/></g></g></g><g fill="#f39200" fill-opacity="1"><g transform="translate(254.465874, 205.446987)"><g><path d="M 8.9375 -20.125 L 8.9375 -17.828125 L 5.53125 -17.828125 L 5.53125 0 L 3.046875 0 L 3.046875 -15.171875 C 2.785156 -15.910156 2.398438 -16.535156 1.890625 -17.046875 C 1.378906 -17.566406 0.726562 -17.828125 -0.0625 -17.828125 L -0.328125 -17.828125 L -0.328125 -20.125 L 0.15625 -20.125 C 0.675781 -20.125 1.210938 -19.953125 1.765625 -19.609375 C 2.316406 -19.265625 2.773438 -18.757812 3.140625 -18.09375 C 3.117188 -18.195312 3.097656 -18.441406 3.078125 -18.828125 C 3.054688 -19.222656 3.046875 -19.5625 3.046875 -19.84375 L 3.046875 -22.265625 L 4.796875 -22.265625 L 5.5 -20.125 Z M 8.9375 -20.125 "/></g></g></g><g fill="#f39200" fill-opacity="1"><g transform="translate(261.454002, 205.446987)"><g><path d="M 12.96875 -2.03125 C 11.269531 -2.03125 9.675781 -2.441406 8.1875 -3.265625 C 6.695312 -4.085938 5.335938 -5.445312 4.109375 -7.34375 C 2.878906 -9.238281 1.820312 -11.804688 0.9375 -15.046875 L 3.390625 -15.6875 C 4.109375 -13.039062 4.925781 -10.890625 5.84375 -9.234375 C 6.757812 -7.585938 7.8125 -6.382812 9 -5.625 C 10.1875 -4.875 11.546875 -4.5 13.078125 -4.5 C 16.304688 -4.5 17.921875 -5.890625 17.921875 -8.671875 C 17.921875 -8.972656 17.898438 -9.257812 17.859375 -9.53125 C 17.816406 -9.800781 17.765625 -10.054688 17.703125 -10.296875 C 16.960938 -9.691406 16.179688 -9.207031 15.359375 -8.84375 C 14.546875 -8.488281 13.644531 -8.3125 12.65625 -8.3125 C 11.382812 -8.3125 10.347656 -8.664062 9.546875 -9.375 C 8.742188 -10.09375 8.34375 -11.109375 8.34375 -12.421875 C 8.34375 -13.367188 8.675781 -14.328125 9.34375 -15.296875 C 10.019531 -16.273438 11.15625 -17.140625 12.75 -17.890625 C 12.320312 -17.867188 11.832031 -17.851562 11.28125 -17.84375 C 10.726562 -17.832031 10.179688 -17.828125 9.640625 -17.828125 L -0.328125 -17.828125 L -0.328125 -20.125 L 30 -20.125 L 30 -17.828125 L 19.875 -17.828125 C 19.5 -17.828125 19.148438 -17.832031 18.828125 -17.84375 C 18.503906 -17.851562 18.203125 -17.867188 17.921875 -17.890625 C 18.441406 -17.003906 19.1875 -16.273438 20.15625 -15.703125 C 21.125 -15.140625 22.503906 -14.859375 24.296875 -14.859375 C 24.835938 -14.859375 25.429688 -14.890625 26.078125 -14.953125 L 27.34375 -12.6875 C 26.820312 -11.71875 26.453125 -10.769531 26.234375 -9.84375 C 26.023438 -8.914062 25.921875 -7.847656 25.921875 -6.640625 C 25.921875 -5.578125 26.003906 -4.5625 26.171875 -3.59375 C 26.347656 -2.625 26.640625 -1.535156 27.046875 -0.328125 L 24.625 0.21875 C 24.238281 -1.03125 23.9375 -2.253906 23.71875 -3.453125 C 23.5 -4.648438 23.390625 -5.894531 23.390625 -7.1875 C 23.390625 -8.332031 23.492188 -9.351562 23.703125 -10.25 C 23.910156 -11.15625 24.15625 -11.925781 24.4375 -12.5625 C 22.101562 -12.582031 20.25 -12.988281 18.875 -13.78125 C 17.507812 -14.582031 16.425781 -15.695312 15.625 -17.125 C 14.289062 -16.445312 13.28125 -15.820312 12.59375 -15.25 C 11.914062 -14.6875 11.453125 -14.160156 11.203125 -13.671875 C 10.960938 -13.179688 10.84375 -12.722656 10.84375 -12.296875 C 10.84375 -11.691406 11.015625 -11.257812 11.359375 -11 C 11.703125 -10.738281 12.085938 -10.609375 12.515625 -10.609375 C 13.335938 -10.609375 14.070312 -10.796875 14.71875 -11.171875 C 15.363281 -11.554688 16.097656 -12.101562 16.921875 -12.8125 L 19.703125 -11.8125 C 19.898438 -11.375 20.0625 -10.835938 20.1875 -10.203125 C 20.320312 -9.566406 20.390625 -8.90625 20.390625 -8.21875 C 20.390625 -7.132812 20.144531 -6.125 19.65625 -5.1875 C 19.175781 -4.25 18.390625 -3.488281 17.296875 -2.90625 C 16.203125 -2.320312 14.757812 -2.03125 12.96875 -2.03125 Z M 12.96875 -2.03125 "/></g></g></g><g fill="#f39200" fill-opacity="1"><g transform="translate(291.123987, 205.446987)"><g><path d="M 8.9375 -20.125 L 8.9375 -17.828125 L 5.53125 -17.828125 L 5.53125 0 L 3.046875 0 L 3.046875 -15.171875 C 2.785156 -15.910156 2.398438 -16.535156 1.890625 -17.046875 C 1.378906 -17.566406 0.726562 -17.828125 -0.0625 -17.828125 L -0.328125 -17.828125 L -0.328125 -20.125 L 0.15625 -20.125 C 0.675781 -20.125 1.210938 -19.953125 1.765625 -19.609375 C 2.316406 -19.265625 2.773438 -18.757812 3.140625 -18.09375 C 3.117188 -18.195312 3.097656 -18.441406 3.078125 -18.828125 C 3.054688 -19.222656 3.046875 -19.5625 3.046875 -19.84375 L 3.046875 -22.265625 L 4.796875 -22.265625 L 5.5 -20.125 Z M 8.9375 -20.125 "/></g></g></g><g fill="#f39200" fill-opacity="1"><g transform="translate(298.112115, 205.446987)"><g><path d="M 19.609375 -20.125 L 19.609375 -17.828125 L 16.21875 -17.828125 L 16.21875 0 L 13.71875 0 C 13.070312 -1.289062 12.179688 -2.476562 11.046875 -3.5625 C 9.921875 -4.65625 8.625 -5.570312 7.15625 -6.3125 C 5.6875 -7.0625 4.117188 -7.578125 2.453125 -7.859375 L 1.203125 -10.96875 C 3.160156 -12.15625 5.179688 -13.234375 7.265625 -14.203125 C 9.347656 -15.171875 11.5 -16.015625 13.71875 -16.734375 L 13.71875 -17.828125 L -0.328125 -17.828125 L -0.328125 -20.125 Z M 4.203125 -9.84375 C 5.304688 -9.601562 6.472656 -9.195312 7.703125 -8.625 C 8.929688 -8.050781 10.085938 -7.332031 11.171875 -6.46875 C 12.265625 -5.601562 13.144531 -4.613281 13.8125 -3.5 C 13.789062 -3.882812 13.769531 -4.28125 13.75 -4.6875 C 13.726562 -5.101562 13.71875 -5.578125 13.71875 -6.109375 L 13.71875 -14.203125 C 12.164062 -13.660156 10.546875 -13.015625 8.859375 -12.265625 C 7.179688 -11.523438 5.628906 -10.71875 4.203125 -9.84375 Z M 5.984375 0.1875 C 5.441406 0.1875 4.984375 0.015625 4.609375 -0.328125 C 4.234375 -0.671875 4.046875 -1.125 4.046875 -1.6875 C 4.046875 -2.25 4.234375 -2.710938 4.609375 -3.078125 C 4.984375 -3.441406 5.441406 -3.625 5.984375 -3.625 C 6.523438 -3.625 6.984375 -3.441406 7.359375 -3.078125 C 7.734375 -2.710938 7.921875 -2.25 7.921875 -1.6875 C 7.921875 -1.125 7.734375 -0.671875 7.359375 -0.328125 C 6.984375 0.015625 6.523438 0.1875 5.984375 0.1875 Z M 5.984375 0.1875 "/></g></g></g></svg>