<?xml version="1.0" encoding="UTF-8"?>
<svg version="1.1" xmlns="http://www.w3.org/2000/svg" width="500" height="500">
<path d="M0 0 C165 0 330 0 500 0 C500 165 500 330 500 500 C335 500 170 500 0 500 C0 335 0 170 0 0 Z " fill="#FEFEFE" transform="translate(0,0)"/>
<path d="M0 0 C1.26948112 4.45596392 0.65537331 7.82175132 -0.3125 12.3125 C-0.45276611 12.97604492 -0.59303223 13.63958984 -0.73754883 14.32324219 C-1.48513499 17.81682742 -2.29832664 21.28995585 -3.1875 24.75 C-4.12126781 27.92673403 -4.12126781 27.92673403 -4 31 C-1.48590969 24.63876684 0.48378772 18.83981276 1 12 C6.2842128 10.48078882 8.95768277 11.96558778 13.6328125 14.4765625 C17.92131235 17.23648814 20.21518857 20.59739651 22.70703125 25.05078125 C25.53961594 28.69405458 27.37627935 29.19261263 31.8125 30.25 C32.99457031 30.54390625 34.17664063 30.8378125 35.39453125 31.140625 C36.58433594 31.42421875 37.77414063 31.7078125 39 32 C41.34058215 32.64387339 43.66962405 33.31968538 46 34 C45.53199289 38.05606165 45.12046792 41.46588679 43 45 C43.969375 45.226875 44.93875 45.45375 45.9375 45.6875 C51.76413991 47.35225426 57.59647437 49.89471156 61 55 C60.505 55.99 60.505 55.99 60 57 C57.84659948 55.93573277 55.71444213 54.84677383 53.59765625 53.7109375 C52.76105469 53.27007812 51.92445313 52.82921875 51.0625 52.375 C50.22847656 51.92898437 49.39445312 51.48296875 48.53515625 51.0234375 C45.76348622 49.90451986 43.95898999 49.6553589 41 50 C39.30225062 51.29352333 37.63260714 52.62517293 36 54 C35.01 54 34.02 54 33 54 C33.495 56.97 33.495 56.97 34 60 C52.48 60 70.96 60 90 60 C89.34 59.01 88.68 58.02 88 57 C84.82819965 56.64716507 81.77102772 56.56359773 78.5859375 56.56054688 C75.18544019 56.46348544 73.30084334 56.22396115 70.5390625 54.16796875 C68.52337331 51.32860961 68.69056312 49.40380566 69 46 C70.32 46 71.64 46 73 46 C73.99 48.97 73.99 48.97 75 52 C76.04800781 52.03738281 77.09601563 52.07476562 78.17578125 52.11328125 C79.55472305 52.17894515 80.93362771 52.24539235 82.3125 52.3125 C83.00279297 52.33505859 83.69308594 52.35761719 84.40429688 52.38085938 C87.31176664 52.5353626 89.50988942 52.68002642 91.98046875 54.29296875 C93 56 93 56 93 60 C95.31 60 97.62 60 100 60 C100 60.99 100 61.98 100 63 C94.06 63 88.12 63 82 63 C82 66.63 82 70.26 82 74 C86.21745401 72.8729078 86.21745401 72.8729078 89.625 70.3125 C90.07875 69.879375 90.5325 69.44625 91 69 C93.0625 69.0625 93.0625 69.0625 95 70 C97.59485001 73.37330502 97.36007906 76.89509876 97 81 C95.20882468 85.14798495 93.16507424 87.2414131 89 89 C84.19704446 89.53366173 82.04298903 89.541552 77.75 87.3125 C71.98632929 82.4657769 69.26389997 77.10479244 67 70 C67 69.01 67 68.02 67 67 C68.32 67 69.64 67 71 67 C71.30292969 67.89203125 71.60585937 68.7840625 71.91796875 69.703125 C72.33691406 70.87359375 72.75585938 72.0440625 73.1875 73.25 C73.59355469 74.41015625 73.99960938 75.5703125 74.41796875 76.765625 C76.16788172 80.34322484 77.63516136 81.91288375 81 84 C83.88482979 84.62346138 85.99176959 84.29111907 89 84 C92.12606964 82.39519216 92.12606964 82.39519216 92.51171875 80.0546875 C92.56972656 79.33539063 92.62773437 78.61609375 92.6875 77.875 C92.8421875 75.956875 92.8421875 75.956875 93 74 C92.13375 74.66 91.2675 75.32 90.375 76 C86.77420624 78.13380371 85.09394163 78.6513089 81 78 C77.83579142 73.25368713 78.87887245 68.63243123 79 63 C73.72 63 68.44 63 63 63 C63 71.91 63 80.82 63 90 C61.68 90 60.36 90 59 90 C58.98582031 89.39671875 58.97164063 88.7934375 58.95703125 88.171875 C58.6618471 82.86308973 58.6618471 82.86308973 55.8125 78.5 C52.80511813 76.896063 50.37916081 76.31434054 47 76 C46.32041397 78.39719432 46.32041397 78.39719432 46 81 C46.66 81.66 47.32 82.32 48 83 C47.625 85.125 47.625 85.125 47 87 C42.125 84.25 42.125 84.25 41 82 C40.6875 78.5625 40.6875 78.5625 41 75 C42.75 73.0625 42.75 73.0625 45 72 C46.32 72 47.64 72 49 72 C45.98112756 68.51668565 43.43090471 67.20842856 39 66 C39 65.01 39 64.02 39 63 C37.68 63 36.36 63 35 63 C35 71.91 35 80.82 35 90 C34.01 90 33.02 90 32 90 C32 81.09 32 72.18 32 63 C30.35 63 28.7 63 27 63 C27 62.01 27 61.02 27 60 C27.99 59.67 28.98 59.34 30 59 C29.01 57.02 29.01 57.02 28 55 C23.5760232 55.19276587 19.9836049 55.45587814 16.0625 57.625 C13.49577912 60.58061798 12.80264397 63.20568303 12 67 C10.515 66.505 10.515 66.505 9 66 C7.82421875 63.41796875 7.82421875 63.41796875 6.6875 60.1875 C4.61036979 54.86168749 3.17247965 52.40580449 -2 50 C-1.44894091 46.0507432 -0.61064629 42.65079826 1 39 C0.29037109 39.75796875 0.29037109 39.75796875 -0.43359375 40.53125 C-5.77054227 45.77456784 -5.77054227 45.77456784 -9.53515625 46.46484375 C-11.7293128 46.44050287 -13.82970672 46.3165011 -16 46 C-16.30292969 45.36191406 -16.60585937 44.72382813 -16.91796875 44.06640625 C-17.33691406 43.24011719 -17.75585938 42.41382813 -18.1875 41.5625 C-18.59355469 40.73878906 -18.99960938 39.91507813 -19.41796875 39.06640625 C-20.86246497 36.79169431 -20.86246497 36.79169431 -23.51953125 36.1015625 C-26.17923727 35.73608288 -26.17923727 35.73608288 -28.5 37.8125 C-35.45862546 45.87566918 -36.7361282 53.56333794 -36 64 C-36.66 63.67 -37.32 63.34 -38 63 C-38.6328125 60.93359375 -38.6328125 60.93359375 -39.125 58.4375 C-39.29257813 57.61121094 -39.46015625 56.78492188 -39.6328125 55.93359375 C-39.75398438 55.29550781 -39.87515625 54.65742188 -40 54 C-47.18317827 63.26629996 -50.93643347 73.73769834 -50.5078125 85.5390625 C-48.83046792 96.97081092 -43.96306646 106.65112606 -36 115 C-35.06414062 115.99966797 -35.06414062 115.99966797 -34.109375 117.01953125 C-30.94167547 120.29052533 -27.63475497 123.24639775 -24 126 C-31.15915158 125.84436627 -35.54337825 122.39107671 -41 118 C-41.70511719 117.43410156 -42.41023438 116.86820312 -43.13671875 116.28515625 C-50.29062636 109.86209971 -57.38885999 98.73555097 -58.16113281 88.96044922 C-58.47222611 72.98978741 -56.49228339 61.44378896 -46.9375 48.125 C-45.01281568 45.02067046 -43.91848845 42.17918211 -42.6875 38.75 C-39.65211691 30.55259196 -35.27795169 24.0581547 -29 18 C-28.195625 18.4640625 -28.195625 18.4640625 -27.375 18.9375 C-24.6015043 20.17827439 -21.99957163 20.5909675 -19 21 C-20.485 19.948125 -20.485 19.948125 -22 18.875 C-24.46847194 16.80429131 -24.93900144 16.29279309 -25.625 13 C-24.6582844 8.35976513 -22.81139565 6.22328018 -18.89453125 3.578125 C-12.52908799 -0.0245742 -7.22523415 -0.6181284 0 0 Z " fill="#F29304" transform="translate(128,186)"/>
<path d="M0 0 C0.99 0 1.98 0 3 0 C3 0.99 3 1.98 3 3 C4.26706787 2.99476318 5.53413574 2.98952637 6.83959961 2.98413086 C11.5228607 2.96608486 16.20611871 2.95456947 20.8894043 2.94506836 C22.91968298 2.94002722 24.94995802 2.93319443 26.98022461 2.92456055 C29.89177347 2.91248533 32.8032745 2.90676966 35.71484375 2.90234375 C37.08514992 2.89460182 37.08514992 2.89460182 38.48313904 2.88670349 C40.65575427 2.88650832 42.82827296 2.93788195 45 3 C45.495 3.495 45.495 3.495 46 4 C46.33 2.68 46.66 1.36 47 0 C47.99 0.33 48.98 0.66 50 1 C50 1.66 50 2.32 50 3 C59.24 3 68.48 3 78 3 C78 3.99 78 4.98 78 6 C76.68 6 75.36 6 74 6 C74 13.92 74 21.84 74 30 C69 29 69 29 67.3125 26.6875 C64.33810042 23.23076535 61.43332515 22.49360415 57.14453125 21.1875 C55 20 55 20 54.19921875 17.375 C54.13347656 16.59125 54.06773437 15.8075 54 15 C56.28929053 13.82845707 58.58118362 12.66261926 60.875 11.5 C61.52597656 11.16613281 62.17695313 10.83226562 62.84765625 10.48828125 C67.7734375 8 67.7734375 8 70 8 C70 7.34 70 6.68 70 6 C63.4 6 56.8 6 50 6 C50 13.92 50 21.84 50 30 C49.01 30 48.02 30 47 30 C46.970271 29.06148193 46.970271 29.06148193 46.93994141 28.10400391 C46.84485774 25.27723481 46.73511254 22.45122185 46.625 19.625 C46.5940625 18.64015625 46.563125 17.6553125 46.53125 16.640625 C46.49257813 15.69960938 46.45390625 14.75859375 46.4140625 13.7890625 C46.3826416 12.91975098 46.3512207 12.05043945 46.31884766 11.15478516 C46.18770567 8.79038206 46.18770567 8.79038206 44 7 C40.64255888 6.75622117 40.64255888 6.75622117 36.875 6.875 C35.59367187 6.89304688 34.31234375 6.91109375 32.9921875 6.9296875 C32.00476563 6.95289063 31.01734375 6.97609375 30 7 C33.45058686 9.30039124 35.94095502 9.4738275 40 10 C41 11 41 11 41.11352539 12.85766602 C41.10567017 14.04380493 41.10567017 14.04380493 41.09765625 15.25390625 C41.09282227 16.53491211 41.09282227 16.53491211 41.08789062 17.84179688 C41.07532227 19.18854492 41.07532227 19.18854492 41.0625 20.5625 C41.05798828 21.46419922 41.05347656 22.36589844 41.04882812 23.29492188 C41.03700225 25.53001314 41.0205222 27.76497437 41 30 C39.68 29.67 38.36 29.34 37 29 C37 23.72 37 18.44 37 13 C34.69 12.67 32.38 12.34 30 12 C29 11 28 10 27 9 C24.34533951 9.23043864 24.34533951 9.23043864 22 10 C21.67 11.65 21.34 13.3 21 15 C23.42501634 14.52846905 25.81107261 14.05397926 28.1875 13.375 C30 13 30 13 32 14 C32.76774904 21.98458998 32.76774904 21.98458998 30.0625 25.5625 C25.88514029 27.5233015 22.53395906 27.75432239 18 27 C12.32367384 24.59847739 10.42822421 20.66279592 7.8828125 15.33984375 C7 13 7 13 7 10 C7.99 9.67 8.98 9.34 10 9 C10.39832031 9.84304687 10.79664063 10.68609375 11.20703125 11.5546875 C11.73683594 12.65039062 12.26664062 13.74609375 12.8125 14.875 C13.59560547 16.51082031 13.59560547 16.51082031 14.39453125 18.1796875 C15.84724897 21.22221402 15.84724897 21.22221402 19 23 C21.28648848 23.24107326 21.28648848 23.24107326 23.6875 23.125 C24.49574219 23.10695313 25.30398438 23.08890625 26.13671875 23.0703125 C26.75160156 23.04710937 27.36648438 23.02390625 28 23 C28.33 21.02 28.66 19.04 29 17 C28.46375 17.33 27.9275 17.66 27.375 18 C24.37065456 19.26498755 22.23232558 19.34386442 19 19 C17.0625 17.875 17.0625 17.875 16 16 C16.18896674 11.4647983 16.70481395 10.29518605 20 7 C14.39 6.67 8.78 6.34 3 6 C3 13.92 3 21.84 3 30 C2.01 30 1.02 30 0 30 C-0.495 18.615 -0.495 18.615 -1 7 C-3.475 6.505 -3.475 6.505 -6 6 C-6 13.92 -6 21.84 -6 30 C-7.32 30 -8.64 30 -10 30 C-11.38671875 28.609375 -11.38671875 28.609375 -12.6875 26.75 C-15.67234242 22.94623927 -18.62122144 21.55760812 -23.14453125 20.01953125 C-25 19 -25 19 -25.76171875 16.88671875 C-25.84035156 16.26410156 -25.91898437 15.64148438 -26 15 C-23.73272667 13.82592979 -21.46165376 12.66060261 -19.1875 11.5 C-18.54490234 11.16613281 -17.90230469 10.83226562 -17.24023438 10.48828125 C-14.30452301 8.99760916 -12.33873483 8 -9 8 C-9 7.34 -9 6.68 -9 6 C-15.27 6 -21.54 6 -28 6 C-28 5.01 -28 4.02 -28 3 C-19.09 3 -10.18 3 -1 3 C-0.67 2.01 -0.34 1.02 0 0 Z " fill="#F3980F" transform="translate(339,244)"/>
<path d="M0 0 C9.77742448 4.55484897 9.77742448 4.55484897 12 9 C11.67 9.66 11.34 10.32 11 11 C8.84659948 9.93573277 6.71444213 8.84677383 4.59765625 7.7109375 C3.76105469 7.27007812 2.92445313 6.82921875 2.0625 6.375 C1.22847656 5.92898437 0.39445312 5.48296875 -0.46484375 5.0234375 C-3.23651378 3.90451986 -5.04101001 3.6553589 -8 4 C-9.69774938 5.29352333 -11.36739286 6.62517293 -13 8 C-13.99 8 -14.98 8 -16 8 C-15.67 9.98 -15.34 11.96 -15 14 C3.48 14 21.96 14 41 14 C40.34 13.01 39.68 12.02 39 11 C35.82819965 10.64716507 32.77102772 10.56359773 29.5859375 10.56054688 C26.18544019 10.46348544 24.30084334 10.22396115 21.5390625 8.16796875 C19.52337331 5.32860961 19.69056312 3.40380566 20 0 C21.32 0 22.64 0 24 0 C24.66 1.98 25.32 3.96 26 6 C27.04800781 6.03738281 28.09601563 6.07476562 29.17578125 6.11328125 C30.55472305 6.17894515 31.93362771 6.24539235 33.3125 6.3125 C34.00279297 6.33505859 34.69308594 6.35761719 35.40429688 6.38085938 C38.31176664 6.5353626 40.50988942 6.68002642 42.98046875 8.29296875 C44 10 44 10 44 14 C46.31 14 48.62 14 51 14 C51 14.99 51 15.98 51 17 C45.06 17 39.12 17 33 17 C33 20.63 33 24.26 33 28 C37.21745401 26.8729078 37.21745401 26.8729078 40.625 24.3125 C41.07875 23.879375 41.5325 23.44625 42 23 C44.0625 23.0625 44.0625 23.0625 46 24 C48.59485001 27.37330502 48.36007906 30.89509876 48 35 C46.20882468 39.14798495 44.16507424 41.2414131 40 43 C35.19704446 43.53366173 33.04298903 43.541552 28.75 41.3125 C22.98632929 36.4657769 20.26389997 31.10479244 18 24 C18 23.01 18 22.02 18 21 C19.32 21 20.64 21 22 21 C22.30292969 21.89203125 22.60585937 22.7840625 22.91796875 23.703125 C23.33691406 24.87359375 23.75585938 26.0440625 24.1875 27.25 C24.59355469 28.41015625 24.99960938 29.5703125 25.41796875 30.765625 C27.16788172 34.34322484 28.63516136 35.91288375 32 38 C34.88482979 38.62346138 36.99176959 38.29111907 40 38 C43.12606964 36.39519216 43.12606964 36.39519216 43.51171875 34.0546875 C43.56972656 33.33539063 43.62773437 32.61609375 43.6875 31.875 C43.790625 30.59625 43.89375 29.3175 44 28 C43.13375 28.66 42.2675 29.32 41.375 30 C37.77420624 32.13380371 36.09394163 32.6513089 32 32 C28.83579142 27.25368713 29.87887245 22.63243123 30 17 C24.72 17 19.44 17 14 17 C14 25.91 14 34.82 14 44 C12.68 44 11.36 44 10 44 C9.98582031 43.39671875 9.97164062 42.7934375 9.95703125 42.171875 C9.6618471 36.86308973 9.6618471 36.86308973 6.8125 32.5 C3.80511813 30.896063 1.37916081 30.31434054 -2 30 C-2.67958603 32.39719432 -2.67958603 32.39719432 -3 35 C-2.34 35.66 -1.68 36.32 -1 37 C-1.375 39.125 -1.375 39.125 -2 41 C-6.875 38.25 -6.875 38.25 -8 36 C-8.3125 32.5625 -8.3125 32.5625 -8 29 C-6.25 27.0625 -6.25 27.0625 -4 26 C-2.68 26 -1.36 26 0 26 C-3.01887244 22.51668565 -5.56909529 21.20842856 -10 20 C-10 19.01 -10 18.02 -10 17 C-11.32 17 -12.64 17 -14 17 C-14 25.91 -14 34.82 -14 44 C-14.99 44 -15.98 44 -17 44 C-17 35.09 -17 26.18 -17 17 C-18.65 17 -20.3 17 -22 17 C-22 16.01 -22 15.02 -22 14 C-21.01 13.67 -20.02 13.34 -19 13 C-19.66 11.68 -20.32 10.36 -21 9 C-19.87895467 7.68412059 -18.75303035 6.37239647 -17.625 5.0625 C-16.99851563 4.33160156 -16.37203125 3.60070312 -15.7265625 2.84765625 C-11.62729993 -1.53911116 -5.5666001 -0.82322959 0 0 Z " fill="#0E0D0B" transform="translate(177,232)"/>
<path d="M0 0 C5.45400145 1.07202037 10.06231358 3.28335577 13.72265625 7.53515625 C13.72265625 8.19515625 13.72265625 8.85515625 13.72265625 9.53515625 C10.7260613 9.05570106 9.15134406 8.16548366 6.53515625 6.47265625 C2.39505096 4.03677534 -1.57272058 3.5905987 -6.27734375 4.53515625 C-8.84725373 6.34780273 -8.84725373 6.34780273 -10.27734375 8.53515625 C-9.94734375 9.52515625 -9.61734375 10.51515625 -9.27734375 11.53515625 C14.97765625 12.03015625 14.97765625 12.03015625 39.72265625 12.53515625 C39.22765625 11.54515625 39.22765625 11.54515625 38.72265625 10.53515625 C36.64441973 10.35609915 34.55811908 10.26707754 32.47265625 10.22265625 C25.07159581 9.76770632 25.07159581 9.76770632 22.41015625 7.22265625 C20.72265625 4.53515625 20.72265625 4.53515625 20.72265625 0.53515625 C22.04265625 0.53515625 23.36265625 0.53515625 24.72265625 0.53515625 C25.38265625 2.18515625 26.04265625 3.83515625 26.72265625 5.53515625 C28.20378906 5.60863281 28.20378906 5.60863281 29.71484375 5.68359375 C30.99617188 5.75835937 32.2775 5.833125 33.59765625 5.91015625 C34.87382812 5.97976562 36.15 6.049375 37.46484375 6.12109375 C40.72265625 6.53515625 40.72265625 6.53515625 42.72265625 8.53515625 C42.72265625 9.85515625 42.72265625 11.17515625 42.72265625 12.53515625 C44.70265625 12.53515625 46.68265625 12.53515625 48.72265625 12.53515625 C48.72265625 13.52515625 48.72265625 14.51515625 48.72265625 15.53515625 C43.77265625 15.53515625 38.82265625 15.53515625 33.72265625 15.53515625 C33.72265625 18.83515625 33.72265625 22.13515625 33.72265625 25.53515625 C36.16745704 25.34686853 36.16745704 25.34686853 38.72265625 24.53515625 C40.08285776 22.56757352 40.08285776 22.56757352 40.72265625 20.53515625 C42.66015625 20.91015625 42.66015625 20.91015625 44.72265625 21.53515625 C46.56842385 25.22669144 46.20440708 29.50537564 45.72265625 33.53515625 C43.53138809 36.63315606 42.31209289 37.33867737 38.72265625 38.53515625 C34.59064085 38.92496902 32.26245016 38.8103453 28.53515625 36.91015625 C22.66787508 31.95556326 20.95852074 26.85277493 19.72265625 19.53515625 C20.71265625 19.20515625 21.70265625 18.87515625 22.72265625 18.53515625 C23.04878906 19.36660156 23.37492187 20.19804687 23.7109375 21.0546875 C24.14792969 22.14136719 24.58492188 23.22804688 25.03515625 24.34765625 C25.46441406 25.42660156 25.89367187 26.50554687 26.3359375 27.6171875 C27.95178726 31.0876134 27.95178726 31.0876134 30.72265625 33.53515625 C33.235553 33.89729193 33.235553 33.89729193 35.91015625 33.72265625 C36.81121094 33.69558594 37.71226562 33.66851562 38.640625 33.640625 C39.32769531 33.60582031 40.01476562 33.57101562 40.72265625 33.53515625 C41.38265625 30.89515625 42.04265625 28.25515625 42.72265625 25.53515625 C42.20703125 26.03015625 41.69140625 26.52515625 41.16015625 27.03515625 C37.84671073 29.07419965 35.54149943 28.95947216 31.72265625 28.53515625 C28.79933356 24.15017221 29.58700605 20.75768905 29.72265625 15.53515625 C25.10265625 15.53515625 20.48265625 15.53515625 15.72265625 15.53515625 C15.72265625 23.45515625 15.72265625 31.37515625 15.72265625 39.53515625 C14.73265625 39.53515625 13.74265625 39.53515625 12.72265625 39.53515625 C12.57828125 38.44203125 12.43390625 37.34890625 12.28515625 36.22265625 C11.83977521 32.60392638 11.83977521 32.60392638 10.72265625 29.53515625 C7.30708484 27.73249356 4.55400124 27.31622225 0.72265625 27.53515625 C0.97015625 28.64890625 0.97015625 28.64890625 1.22265625 29.78515625 C1.72265625 32.53515625 1.72265625 32.53515625 1.72265625 36.53515625 C-1.43850151 35.16532122 -2.27005295 34.54609245 -4.27734375 31.53515625 C-4.08984375 28.47265625 -4.08984375 28.47265625 -3.27734375 25.53515625 C-0.27734375 23.53515625 -0.27734375 23.53515625 2.72265625 23.53515625 C2.72265625 22.54515625 2.72265625 21.55515625 2.72265625 20.53515625 C0.08265625 19.87515625 -2.55734375 19.21515625 -5.27734375 18.53515625 C-5.27734375 17.87515625 -5.27734375 17.21515625 -5.27734375 16.53515625 C-6.26734375 16.53515625 -7.25734375 16.53515625 -8.27734375 16.53515625 C-8.27734375 24.12515625 -8.27734375 31.71515625 -8.27734375 39.53515625 C-9.59734375 39.53515625 -10.91734375 39.53515625 -12.27734375 39.53515625 C-12.27734375 31.61515625 -12.27734375 23.69515625 -12.27734375 15.53515625 C-13.59734375 15.53515625 -14.91734375 15.53515625 -16.27734375 15.53515625 C-16.27734375 14.54515625 -16.27734375 13.55515625 -16.27734375 12.53515625 C-15.61734375 12.20515625 -14.95734375 11.87515625 -14.27734375 11.53515625 C-14.60734375 10.54515625 -14.93734375 9.55515625 -15.27734375 8.53515625 C-11.80954324 1.76776944 -7.43766622 -0.56268451 0 0 Z " fill="#F39A14" transform="translate(255.27734375,234.46484375)"/>
<path d="M0 0 C2.475 0.495 2.475 0.495 5 1 C4.14222199 6.30467979 3.05671051 11.13430994 0.875 16.0625 C-2.61082807 24.37385873 -1.28750518 32.21177838 1.96484375 40.44140625 C4.57500428 46.19782089 7.77837713 50.23447954 12.42578125 54.50390625 C12.94527344 54.99761719 13.46476562 55.49132812 14 56 C14 56.33 14 56.66 14 57 C2.65092554 56.8043263 -8.07514625 50.9737859 -16.15625 43.1640625 C-20.95171323 37.53548913 -23.87108933 31.47092338 -23.43359375 23.98046875 C-22.75900951 20.89925966 -21.26011285 19.12716504 -19 17 C-16.48677688 15.74338844 -14.49082323 15.78432284 -11.6875 15.625 C-7.40445965 15.27135447 -4.40026722 14.83355602 -1 12 C0.36475387 9.27049225 0.06060095 7.03004728 0 4 C0 2.68 0 1.36 0 0 Z " fill="#F39405" transform="translate(138,257)"/>
<path d="M0 0 C2.29296875 0.12109375 2.29296875 0.12109375 5 1 C6.80078125 3.72265625 6.80078125 3.72265625 8.3125 7.0625 C8.82425781 8.16722656 9.33601563 9.27195313 9.86328125 10.41015625 C10.23839844 11.26480469 10.61351563 12.11945313 11 13 C6.25 17 6.25 17 4 17 C3.34 19.64 2.68 22.28 2 25 C1.34 25 0.68 25 0 25 C-4.16936006 19.13683741 -5.08833366 14.14742199 -4 7 C-2.92201286 4.30967864 -1.69494974 2.38352307 0 0 Z " fill="#F3970C" transform="translate(102,225)"/>
<path d="M0 0 C4.95 0 9.9 0 15 0 C15 4.29 15 8.58 15 13 C9 10 9 10 7.75 7.125 C5.66668742 3.40479896 3.88942339 2.55576936 0 1 C0 0.67 0 0.34 0 0 Z " fill="#EEEEEE" transform="translate(172,249)"/>
<path d="M0 0 C5.625 -0.25 5.625 -0.25 9 2 C9.3125 5 9.3125 5 9 8 C7 10 7 10 3.375 10.125 C2.26125 10.08375 1.1475 10.0425 0 10 C0 6.7 0 3.4 0 0 Z " fill="#2B2B2B" transform="translate(406,283)"/>
<path d="M0 0 C2.5625 0.3125 2.5625 0.3125 4.4375 1.5 C5.5625 3.3125 5.5625 3.3125 5.375 5.875 C4.5625 8.3125 4.5625 8.3125 2.5625 10.3125 C0.0625 10.5625 0.0625 10.5625 -2.4375 10.3125 C-4.4375 8.3125 -4.4375 8.3125 -4.6875 5.3125 C-4.37675292 1.58353509 -3.7821044 0.48488518 0 0 Z " fill="#252525" transform="translate(387.4375,282.6875)"/>
<path d="M0 0 C0 4.62 0 9.24 0 14 C-1.953125 12.50260417 -3.90625 11.00520833 -5.859375 9.5078125 C-7.84722603 8.10761086 -9.79843386 7.02144735 -12 6 C-9.1490916 2.47828963 -4.56486714 0 0 0 Z " fill="#FDF5E9" transform="translate(330,255)"/>
<path d="M0 0 C4.29 0 8.58 0 13 0 C13 3.96 13 7.92 13 12 C7.27736234 9.63630184 7.27736234 9.63630184 5.9375 6.5625 C5.628125 5.716875 5.31875 4.87125 5 4 C3.35 2.68 1.7 1.36 0 0 Z " fill="#FEF5E9" transform="translate(255,250)"/>
<path d="M0 0 C2.5 0.25 2.5 0.25 4.5 2.25 C4.75 5.25 4.75 5.25 4.5 8.25 C2.5 10.25 2.5 10.25 0 10.5 C-2.5 10.25 -2.5 10.25 -4.5 8.25 C-4.75 5.25 -4.75 5.25 -4.5 2.25 C-2.5 0.25 -2.5 0.25 0 0 Z " fill="#131313" transform="translate(399.5,282.75)"/>
<path d="M0 0 C2.5 0.25 2.5 0.25 4.5 2.25 C4.75 5.25 4.75 5.25 4.5 8.25 C2.5 10.25 2.5 10.25 0 10.5 C-2.5 10.25 -2.5 10.25 -4.5 8.25 C-4.75 5.25 -4.75 5.25 -4.5 2.25 C-2.5 0.25 -2.5 0.25 0 0 Z " fill="#131313" transform="translate(304.5,282.75)"/>
<path d="M0 0 C0 3.96 0 7.92 0 12 C-1.953125 10.76302083 -3.90625 9.52604167 -5.859375 8.2890625 C-7.86517383 7.08119094 -9.89178296 6.01612263 -12 5 C-7.86687528 1.75254486 -5.36067372 0 0 0 Z " fill="#FEF9F1" transform="translate(409,256)"/>
<path d="M0 0 C2.31 0 4.62 0 7 0 C8.125 4.75 8.125 4.75 7 7 C7.33 7.99 7.66 8.98 8 10 C7.01 10 6.02 10 5 10 C4.67 9.34 4.34 8.68 4 8 C3.67 8.66 3.34 9.32 3 10 C2.01 10 1.02 10 0 10 C0 6.7 0 3.4 0 0 Z " fill="#707070" transform="translate(311,283)"/>
<path d="M0 0 C1.65 0.33 3.3 0.66 5 1 C5 1.66 5 2.32 5 3 C4.01 3.495 4.01 3.495 3 4 C4.32 4.33 5.64 4.66 7 5 C7.33 6.65 7.66 8.3 8 10 C5.03 10 2.06 10 -1 10 C-2.15837626 5.94568308 -1.83691257 3.78187881 0 0 Z " fill="#414141" transform="translate(286,283)"/>
<path d="M0 0 C1.32 0.33 2.64 0.66 4 1 C5.046875 3.06640625 5.046875 3.06640625 5.75 5.5625 C5.99234375 6.38878906 6.2346875 7.21507812 6.484375 8.06640625 C6.65453125 8.70449219 6.8246875 9.34257812 7 10 C6.01 10 5.02 10 4 10 C4 9.34 4 8.68 4 8 C2.68 8 1.36 8 0 8 C0 8.66 0 9.32 0 10 C-0.99 10 -1.98 10 -3 10 C-2.01 6.7 -1.02 3.4 0 0 Z " fill="#191919" transform="translate(335,283)"/>
<path d="M0 0 C2.55689522 1.19854463 4.11996267 2.8560301 6 4.9375 C2.35206816 6.21003436 -1.1936543 7.26579194 -5 7.9375 C-5.33 6.2875 -5.66 4.6375 -6 2.9375 C-2.61835749 -0.08182367 -2.61835749 -0.08182367 0 0 Z " fill="#FEF8EF" transform="translate(365,252.0625)"/>
<path d="M0 0 C4 2 4 2 5 4 C5.33 2.68 5.66 1.36 6 0 C6.66 0 7.32 0 8 0 C8 3.3 8 6.6 8 10 C4 8 4 8 3 6 C2.67 7.32 2.34 8.64 2 10 C1.34 10 0.68 10 0 10 C0 6.7 0 3.4 0 0 Z " fill="#101010" transform="translate(344,283)"/>
<path d="M0 0 C0.33 0.66 0.66 1.32 1 2 C-0.65 2 -2.3 2 -4 2 C-4.33 3.65 -4.66 5.3 -5 7 C-3.68 7 -2.36 7 -1 7 C-1 6.34 -1 5.68 -1 5 C-1.66 4.67 -2.32 4.34 -3 4 C-1.68 4 -0.36 4 1 4 C1 5.32 1 6.64 1 8 C-1.31 8.33 -3.62 8.66 -6 9 C-8 6 -8 6 -7.75 2.875 C-7.37875 1.451875 -7.37875 1.451875 -7 0 C-4.30234372 -1.34882814 -2.84835666 -0.80338265 0 0 Z " fill="#131313" transform="translate(329,284)"/>
<path d="M0 0 C4.02197735 1.53218185 4.76129262 4.20355905 6.625 8 C0.26785714 7.51098901 0.26785714 7.51098901 -2.8125 5.0625 C-4.375 3 -4.375 3 -4.375 1 C-2.375 0 -2.375 0 0 0 Z " fill="#F39A14" transform="translate(125.375,246)"/>
<path d="M0 0 C0 0.66 0 1.32 0 2 C-1.32 1.67 -2.64 1.34 -4 1 C-4 1.66 -4 2.32 -4 3 C-2.68 3.33 -1.36 3.66 0 4 C-0.33 5.65 -0.66 7.3 -1 9 C-2.65 9 -4.3 9 -6 9 C-6.33 8.01 -6.66 7.02 -7 6 C-5.68 6 -4.36 6 -3 6 C-4.32 5.34 -5.64 4.68 -7 4 C-7 2.68 -7 1.36 -7 0 C-4.3333581 -1.33332095 -2.83319697 -0.67102033 0 0 Z " fill="#222222" transform="translate(278,284)"/>
<path d="M0 0 C1.98 0 3.96 0 6 0 C6.33 1.65 6.66 3.3 7 5 C5.35 5.33 3.7 5.66 2 6 C2 7.32 2 8.64 2 10 C1.34 10 0.68 10 0 10 C0 6.7 0 3.4 0 0 Z " fill="#525252" transform="translate(245,283)"/>
<path d="M0 0 C3.125 0.375 3.125 0.375 6 1 C6 1.66 6 2.32 6 3 C4.35 3 2.7 3 1 3 C1 4.32 1 5.64 1 7 C2.65 7 4.3 7 6 7 C6 7.66 6 8.32 6 9 C0.56559513 10.32841008 0.56559513 10.32841008 -1.9375 8.875 C-3 7 -3 7 -2.8125 4.4375 C-2 2 -2 2 0 0 Z " fill="#202020" transform="translate(362,283)"/>
<path d="M0 0 C1.98 0 3.96 0 6 0 C6 0.66 6 1.32 6 2 C4.68 2 3.36 2 2 2 C2 2.66 2 3.32 2 4 C3.32 4 4.64 4 6 4 C6 4.66 6 5.32 6 6 C5.01 6 4.02 6 3 6 C3 6.66 3 7.32 3 8 C3.99 8 4.98 8 6 8 C6 8.66 6 9.32 6 10 C4.02 10 2.04 10 0 10 C0 6.7 0 3.4 0 0 Z " fill="#1C1C1C" transform="translate(254,283)"/>
<path d="M0 0 C2.31 0 4.62 0 7 0 C7 0.66 7 1.32 7 2 C6.34 2 5.68 2 5 2 C5 4.64 5 7.28 5 10 C4.01 10 3.02 10 2 10 C2 7.36 2 4.72 2 2 C1.34 2 0.68 2 0 2 C0 1.34 0 0.68 0 0 Z " fill="#2D2D2D" transform="translate(262,283)"/>
<path d="M0 0 C1.65 0.33 3.3 0.66 5 1 C4.34 4.3 3.68 7.6 3 11 C0.82905523 8.82905523 0.5137 7.84247144 -0.1875 4.9375 C-0.36667969 4.22464844 -0.54585937 3.51179688 -0.73046875 2.77734375 C-0.81941406 2.19082031 -0.90835938 1.60429687 -1 1 C-0.67 0.67 -0.34 0.34 0 0 Z " fill="#F4A329" transform="translate(138,257)"/>
<path d="M0 0 C1.98 0 3.96 0 6 0 C6 0.66 6 1.32 6 2 C4.68 2 3.36 2 2 2 C2 2.66 2 3.32 2 4 C2.99 4 3.98 4 5 4 C5 4.66 5 5.32 5 6 C4.01 6 3.02 6 2 6 C2 7.32 2 8.64 2 10 C1.34 10 0.68 10 0 10 C0 6.7 0 3.4 0 0 Z " fill="#0F0F0F" transform="translate(375,283)"/>
<path d="M0 0 C1.65 0 3.3 0 5 0 C4.01 0.33 3.02 0.66 2 1 C2 1.99 2 2.98 2 4 C2.99 4 3.98 4 5 4 C5.66 5.65 6.32 7.3 7 9 C6.01 9 5.02 9 4 9 C3.67 8.34 3.34 7.68 3 7 C2.67 7.66 2.34 8.32 2 9 C1.34 9 0.68 9 0 9 C0 6.03 0 3.06 0 0 Z " fill="#060606" transform="translate(312,284)"/>
<path d="M0 0 C2.0625 0.4375 2.0625 0.4375 4 1 C4 2.98 4 4.96 4 7 C2.35 6.67 0.7 6.34 -1 6 C-1.042721 4.33388095 -1.04063832 2.66617115 -1 1 C-0.67 0.67 -0.34 0.34 0 0 Z " fill="#FEF8F0" transform="translate(139,210)"/>
<path d="M0 0 C1.4540625 0.0309375 1.4540625 0.0309375 2.9375 0.0625 C2.9375 1.7125 2.9375 3.3625 2.9375 5.0625 C2.6075 4.4025 2.2775 3.7425 1.9375 3.0625 C0.9475 3.5575 0.9475 3.5575 -0.0625 4.0625 C-0.0625 4.7225 -0.0625 5.3825 -0.0625 6.0625 C-1.3825 6.0625 -2.7025 6.0625 -4.0625 6.0625 C-4.105221 4.39638095 -4.10313832 2.72867115 -4.0625 1.0625 C-3.0625 0.0625 -3.0625 0.0625 0 0 Z " fill="#B8B8B8" transform="translate(328.0625,284.9375)"/>
<path d="M0 0 C1.98 0.495 1.98 0.495 4 1 C3.67 2.65 3.34 4.3 3 6 C1.68 5.67 0.36 5.34 -1 5 C-0.67 3.35 -0.34 1.7 0 0 Z " fill="#E0E0E0" transform="translate(398,285)"/>
<path d="M0 0 C1.98 0.495 1.98 0.495 4 1 C3.67 2.65 3.34 4.3 3 6 C1.68 5.67 0.36 5.34 -1 5 C-0.67 3.35 -0.34 1.7 0 0 Z " fill="#E0E0E0" transform="translate(303,285)"/>
<path d="M0 0 C0.66 0 1.32 0 2 0 C2 3.3 2 6.6 2 10 C0.68 9.34 -0.64 8.68 -2 8 C-1.67 7.01 -1.34 6.02 -1 5 C-0.65179959 3.33637583 -0.31595508 1.67004829 0 0 Z " fill="#090909" transform="translate(350,283)"/>
<path d="M0 0 C0.99 0.33 1.98 0.66 3 1 C3 2.98 3 4.96 3 7 C1.02 7.99 1.02 7.99 -1 9 C-0.835 8.071875 -0.67 7.14375 -0.5 6.1875 C0.07748388 3.04378647 0.07748388 3.04378647 0 0 Z " fill="#232323" transform="translate(412,284)"/>
<path d="M0 0 C0.66 0 1.32 0 2 0 C2.33 1.65 2.66 3.3 3 5 C0.03 5 -2.94 5 -6 5 C-6 4.34 -6 3.68 -6 3 C-5.195625 2.87625 -4.39125 2.7525 -3.5625 2.625 C-2.716875 2.41875 -1.87125 2.2125 -1 2 C-0.67 1.34 -0.34 0.68 0 0 Z " fill="#1A1A1A" transform="translate(291,288)"/>
<path d="M0 0 C1.65 0 3.3 0 5 0 C4.01 0.33 3.02 0.66 2 1 C2 1.99 2 2.98 2 4 C2.66 4.33 3.32 4.66 4 5 C3.34 5 2.68 5 2 5 C2 6.32 2 7.64 2 9 C1.34 9 0.68 9 0 9 C0 6.03 0 3.06 0 0 Z " fill="#000000" transform="translate(245,284)"/>
<path d="M0 0 C1.32 0 2.64 0 4 0 C3.67 1.65 3.34 3.3 3 5 C1.68 4.67 0.36 4.34 -1 4 C-0.67 2.68 -0.34 1.36 0 0 Z " fill="#E8E8E8" transform="translate(386,286)"/>
<path d="M0 0 C1.32 0.66 2.64 1.32 4 2 C3.67 2.99 3.34 3.98 3 5 C1.35 4.67 -0.3 4.34 -2 4 C-1.34 2.68 -0.68 1.36 0 0 Z " fill="#F4A021" transform="translate(398,269)"/>
<path d="M0 0 C0.33 0.66 0.66 1.32 1 2 C-0.65 2 -2.3 2 -4 2 C-4.66 3.32 -5.32 4.64 -6 6 C-6.33 4.02 -6.66 2.04 -7 0 C-4.30234372 -1.34882814 -2.84835666 -0.80338265 0 0 Z " fill="#2A2A2A" transform="translate(329,284)"/>
<path d="M0 0 C1.98 0.99 1.98 0.99 4 2 C3.67 3.32 3.34 4.64 3 6 C2.01 6 1.02 6 0 6 C0 4.02 0 2.04 0 0 Z " fill="#DEDEDE" transform="translate(409,285)"/>
<path d="M0 0 C1.32 0.33 2.64 0.66 4 1 C4.33 2.32 4.66 3.64 5 5 C3.02 5.99 3.02 5.99 1 7 C1.020625 6.21625 1.04125 5.4325 1.0625 4.625 C1.18684063 2.01885039 1.18684063 2.01885039 0 0 Z " fill="#535353" transform="translate(335,283)"/>
</svg>
