<?xml version="1.0" encoding="UTF-8"?>
<svg version="1.1" xmlns="http://www.w3.org/2000/svg" width="448" height="166">
<path d="M0 0 C147.84 0 295.68 0 448 0 C448 54.78 448 109.56 448 166 C300.16 166 152.32 166 0 166 C0 111.22 0 56.44 0 0 Z " fill="#FDFDFD" transform="translate(0,0)"/>
<path d="M0 0 C3.65793852 2.14808629 7.19882891 4.41160888 10.6875 6.82421875 C11.30069092 7.24751465 11.91388184 7.67081055 12.5456543 8.10693359 C14.9051724 9.82898906 16.73877582 11.21825235 18.01953125 13.8828125 C18 15.76171875 18 15.76171875 16 18.76171875 C11.4905718 16.68648438 7.44150257 13.85111776 3.30859375 11.12695312 C-3.27659324 6.8344397 -8.41316412 4.17368311 -16.375 4.19921875 C-17.12797363 4.20091064 -17.88094727 4.20260254 -18.65673828 4.2043457 C-24.03518713 4.3788797 -27.61815952 5.28873775 -31.61328125 9.11328125 C-35.20699301 13.22166946 -35.20699301 13.22166946 -35.8125 18.44921875 C-35.13259902 20.91760711 -35.13259902 20.91760711 -33 22.76171875 C-30.84355039 23.07565074 -30.84355039 23.07565074 -28.31771851 23.04019165 C-27.33051315 23.05135513 -26.3433078 23.06251862 -25.32618713 23.07402039 C-24.23934128 23.07618057 -23.15249542 23.07834076 -22.03271484 23.08056641 C-20.89125504 23.09061203 -19.74979523 23.10065765 -18.57374573 23.11100769 C-14.7861483 23.1419946 -10.99862203 23.15891793 -7.2109375 23.17578125 C-4.59062074 23.19448041 -1.97031007 23.21405287 0.6499939 23.23446655 C6.85122848 23.28129976 13.05248036 23.31802178 19.2538017 23.35113943 C26.31302105 23.38932883 33.37214769 23.43874725 40.43128896 23.48912358 C54.95412131 23.5925109 69.47702008 23.68174912 84 23.76171875 C82.88145414 20.03557722 82.88145414 20.03557722 80 17.76171875 C78.12319239 17.65534618 76.24299071 17.60629114 74.36328125 17.5859375 C72.66075195 17.55016602 72.66075195 17.55016602 70.92382812 17.51367188 C68.5359831 17.47105485 66.14790972 17.4396152 63.75976562 17.41992188 C56.98412894 17.25540896 52.47682278 16.88071428 47 12.76171875 C43.52587365 9.02035191 42.77104971 6.35444998 42.75 1.38671875 C42.81370629 -0.15588362 42.89043304 -1.69825669 43 -3.23828125 C45.31 -3.23828125 47.62 -3.23828125 50 -3.23828125 C50.16435547 -2.19027344 50.16435547 -2.19027344 50.33203125 -1.12109375 C50.49058594 -0.21101563 50.64914063 0.6990625 50.8125 1.63671875 C50.96332031 2.54164062 51.11414063 3.4465625 51.26953125 4.37890625 C51.83051301 7.10584353 51.83051301 7.10584353 55 8.76171875 C57.59701042 9.08093872 57.59701042 9.08093872 60.515625 9.0703125 C61.60230469 9.09544922 62.68898438 9.12058594 63.80859375 9.14648438 C66.08718636 9.18140038 68.36583747 9.21270125 70.64453125 9.24023438 C76.8210354 9.38972474 81.59539588 9.64908081 87 12.76171875 C90.48677023 16.87431954 91 18.22863118 91 23.76171875 C95.29 23.76171875 99.58 23.76171875 104 23.76171875 C104 26.07171875 104 28.38171875 104 30.76171875 C92.78 30.76171875 81.56 30.76171875 70 30.76171875 C70.495 41.15671875 70.495 41.15671875 71 51.76171875 C77.62684189 51.48578134 77.62684189 51.48578134 80.22265625 48.73046875 C80.82980469 47.91578125 81.43695313 47.10109375 82.0625 46.26171875 C84.44309317 43.0808839 85.31797901 41.92586339 89.24609375 40.98046875 C90.60927734 40.8721875 90.60927734 40.8721875 92 40.76171875 C97.0130489 49.04220131 99.63241886 56.02951166 98 65.76171875 C95.97096434 72.03412579 92.63624616 75.6523348 86.96484375 78.88671875 C80.00569928 81.98582086 71.89872467 81.76208826 64.8125 79.19921875 C49.814878 72.37779638 44.99645871 58.01040534 39.54736328 43.59594727 C39 41.76171875 39 41.76171875 39 38.76171875 C41.70879335 37.40732207 44.00933268 37.69670424 47 37.76171875 C47.20753906 38.53773437 47.41507812 39.31375 47.62890625 40.11328125 C49.42853151 46.42326438 51.51634314 52.36104634 54.375 58.26171875 C54.91898437 59.38578125 55.46296875 60.50984375 56.0234375 61.66796875 C58.90420088 66.17698969 62.83848813 69.97579639 68 71.76171875 C77.18432388 72.77965867 77.18432388 72.77965867 85.75 70.07421875 C90.08531435 65.618479 90.21812023 61.71802557 90.16796875 55.75 C90.11735377 53.68781478 90.11735377 53.68781478 89 51.76171875 C88.34 51.76171875 87.68 51.76171875 87 51.76171875 C86.236875 52.52484375 85.47375 53.28796875 84.6875 54.07421875 C81.00527419 57.75644456 78.25964673 59.9031786 73 60.19921875 C68.93957229 60.04570542 66.81960936 58.75221353 64 55.76171875 C62.99994696 52.76155963 62.88424415 50.78748119 62.90234375 47.65625 C62.90484131 46.77042236 62.90733887 45.88459473 62.90991211 44.97192383 C62.91901611 43.85068115 62.92812012 42.72943848 62.9375 41.57421875 C62.958125 38.00609375 62.97875 34.43796875 63 30.76171875 C51.12 30.76171875 39.24 30.76171875 27 30.76171875 C27 47.92171875 27 65.08171875 27 82.76171875 C24.69 82.76171875 22.38 82.76171875 20 82.76171875 C20.020625 81.69953125 20.04125 80.63734375 20.0625 79.54296875 C20.17860539 69.96826568 20.17860539 69.96826568 15.4375 62.01171875 C10.64868315 58.13954484 5.90633835 55.15295661 -0.25 54.32421875 C-3.48501894 54.83888085 -4.8819029 55.23629528 -7 57.76171875 C-7.83383302 61.17580404 -7.83383302 61.17580404 -7 64.76171875 C-5.17028483 66.88228459 -3.33971463 68.15316494 -1 69.76171875 C-1.66 71.74171875 -2.32 73.72171875 -3 75.76171875 C-7.92604873 75.32706739 -10.51891224 73.165449 -14 69.76171875 C-16.57419563 65.54939863 -16.83729632 60.56560068 -16 55.76171875 C-14.32595077 52.61370586 -12.00025269 50.49523739 -9.125 48.38671875 C-6.06179913 47.48577732 -3.16941191 47.63981829 0 47.76171875 C-1.95218949 43.13811206 -3.3142398 40.71411883 -8 38.76171875 C-11.64648528 37.94395971 -15.30436015 37.31185778 -19 36.76171875 C-19 34.78171875 -19 32.80171875 -19 30.76171875 C-22.96 30.76171875 -26.92 30.76171875 -31 30.76171875 C-31 47.92171875 -31 65.08171875 -31 82.76171875 C-33.64 82.76171875 -36.28 82.76171875 -39 82.76171875 C-39 65.60171875 -39 48.44171875 -39 30.76171875 C-42.3 30.76171875 -45.6 30.76171875 -49 30.76171875 C-49 28.45171875 -49 26.14171875 -49 23.76171875 C-46.36 23.76171875 -43.72 23.76171875 -41 23.76171875 C-41.680625 22.87484375 -42.36125 21.98796875 -43.0625 21.07421875 C-45 17.76171875 -45 17.76171875 -44.8125 15.33203125 C-42.41107104 7.73520309 -35.64135113 1.80428031 -29 -2.23828125 C-19.93712765 -5.2592387 -8.47978807 -4.11034172 0 0 Z " fill="#0C0C0C" transform="translate(165,34.23828125)"/>
<path d="M0 0 C0.85722656 0.515625 1.71445312 1.03125 2.59765625 1.5625 C3.56832031 2.14 4.53898437 2.7175 5.5390625 3.3125 C10.12919371 6.14847987 14.42139401 9.14215619 18.59765625 12.5625 C18.28515625 14.4375 18.28515625 14.4375 17.59765625 16.5625 C16.60765625 17.2225 15.61765625 17.8825 14.59765625 18.5625 C13.70304687 17.88703125 12.8084375 17.2115625 11.88671875 16.515625 C1.16143871 8.53907974 -7.03978802 3.67520056 -20.89453125 4.0390625 C-27.02361734 4.95364773 -30.26878521 7.9674974 -34.08203125 12.60546875 C-35.7896968 15.13665349 -35.86328021 16.56641303 -35.40234375 19.5625 C-33.78145787 21.71889067 -32.88946779 22.47716567 -30.2059679 22.94726086 C-28.91591862 22.9541743 -28.91591862 22.9541743 -27.59980774 22.96122742 C-26.61122772 22.97376556 -25.62264771 22.98630371 -24.60411072 22.9992218 C-23.52086014 22.99778671 -22.43760956 22.99635162 -21.3215332 22.99487305 C-19.60912445 23.01016052 -19.60912445 23.01016052 -17.86212158 23.02575684 C-14.07990691 23.05600745 -10.297945 23.06517142 -6.515625 23.07421875 C-3.89673513 23.09105644 -1.27785339 23.10920543 1.34101868 23.12861633 C7.53514448 23.17231035 13.72924389 23.20083937 19.92347699 23.22393972 C26.97548575 23.25097593 34.02735768 23.29488833 41.07926881 23.34022844 C55.5853178 23.43311614 70.09142527 23.50477795 84.59765625 23.5625 C83.81635554 21.06697516 83.81635554 21.06697516 82.59765625 18.5625 C79.51383924 17.534561 77.28069478 17.40873327 74.046875 17.3515625 C72.95568359 17.32320312 71.86449219 17.29484375 70.74023438 17.265625 C68.44872587 17.21381022 66.15703562 17.16946038 63.86523438 17.1328125 C53.3456432 16.83561393 53.3456432 16.83561393 48.59765625 13.5625 C44.81822693 9.37448373 43.4635417 7.02343476 43.53515625 1.4375 C43.54417969 0.52742188 43.55320312 -0.38265625 43.5625 -1.3203125 C43.57410156 -2.01898438 43.58570313 -2.71765625 43.59765625 -3.4375 C45.90765625 -3.4375 48.21765625 -3.4375 50.59765625 -3.4375 C50.76201172 -2.38949219 50.76201172 -2.38949219 50.9296875 -1.3203125 C51.08824219 -0.41023438 51.24679687 0.49984375 51.41015625 1.4375 C51.56097656 2.34242187 51.71179688 3.24734375 51.8671875 4.1796875 C52.42816926 6.90662478 52.42816926 6.90662478 55.59765625 8.5625 C58.19466667 8.88171997 58.19466667 8.88171997 61.11328125 8.87109375 C62.19996094 8.89623047 63.28664063 8.92136719 64.40625 8.94726562 C66.68484261 8.98218163 68.96349372 9.0134825 71.2421875 9.04101562 C78.25943 9.21085443 84.09923789 9.40263825 89.53515625 14.3125 C90.59765625 16.5625 90.59765625 16.5625 90.59765625 23.5625 C95.21765625 23.5625 99.83765625 23.5625 104.59765625 23.5625 C104.59765625 25.8725 104.59765625 28.1825 104.59765625 30.5625 C93.37765625 30.5625 82.15765625 30.5625 70.59765625 30.5625 C71.09265625 40.9575 71.09265625 40.9575 71.59765625 51.5625 C78.2352598 51.29341101 78.2352598 51.29341101 80.8203125 48.49609375 C81.42746094 47.67238281 82.03460938 46.84867188 82.66015625 46 C84.5078125 43.49609375 84.5078125 43.49609375 86.59765625 41.5625 C89.703125 41.12109375 89.703125 41.12109375 92.59765625 41.5625 C97.81484238 47.64921715 99.08000387 53.99950957 98.91015625 61.8125 C98.25195349 67.60468426 95.86622341 71.26510177 91.84765625 75.375 C85.04394469 79.95442124 78.80350906 81.5294317 70.59765625 80.5625 C61.60385399 78.36188881 54.96318821 72.96281609 49.59765625 65.5625 C45.02986575 57.94224806 39.59765625 47.64455036 39.59765625 38.5625 C43.06265625 38.0675 43.06265625 38.0675 46.59765625 37.5625 C47.18546875 39.17125 47.18546875 39.17125 47.78515625 40.8125 C53.77300389 57.68545657 53.77300389 57.68545657 65.59765625 70.5625 C71.36778571 72.48587649 78.96547925 72.75806452 84.78125 70.84375 C87.14408852 69.38244339 88.53568151 67.66391321 89.97265625 65.3125 C91.04029644 60.61488319 91.13772235 56.18269829 89.59765625 51.5625 C86.77228561 52.75784912 84.92690551 54.12374041 82.53515625 56.125 C78.24913971 59.68148181 75.07694637 60.0348526 69.59765625 59.5625 C66.06816097 57.3663696 64.14101671 55.38948305 62.59765625 51.5625 C62.37060547 49.18066406 62.37060547 49.18066406 62.40234375 46.578125 C62.40733887 45.73540039 62.41233398 44.89267578 62.41748047 44.02441406 C62.43568848 42.96448242 62.45389648 41.90455078 62.47265625 40.8125 C62.51390625 37.43 62.55515625 34.0475 62.59765625 30.5625 C51.04765625 30.5625 39.49765625 30.5625 27.59765625 30.5625 C27.59765625 47.7225 27.59765625 64.8825 27.59765625 82.5625 C25.28765625 82.5625 22.97765625 82.5625 20.59765625 82.5625 C20.64148438 81.51191406 20.6853125 80.46132812 20.73046875 79.37890625 C20.86572706 71.03533879 20.86572706 71.03533879 17.55078125 63.6015625 C12.1486856 58.67419647 6.75522724 55.051626 -0.58984375 54.1875 C-3.85341768 54.62264319 -5.23944107 55.06684306 -7.40234375 57.5625 C-8.06914743 60.51970628 -8.06914743 60.51970628 -7.40234375 63.5625 C-5.65234375 65.8125 -5.65234375 65.8125 -3.40234375 67.5625 C-2.40234375 68.5625 -1.40234375 69.5625 -0.40234375 70.5625 C-1.39234375 72.2125 -2.38234375 73.8625 -3.40234375 75.5625 C-7.67963462 75.0757738 -9.42292891 73.98453651 -12.15234375 70.6875 C-12.7453125 69.98882812 -13.33828125 69.29015625 -13.94921875 68.5703125 C-16.74250078 64.71077765 -16.79527393 61.19907609 -16.40234375 56.5625 C-14.1502852 52.22520205 -11.96374135 49.42852629 -7.40234375 47.5625 C-4.68089274 47.33444545 -2.14283175 47.42315315 0.59765625 47.5625 C-3.15266429 40.38797375 -8.61717587 38.89062908 -15.96484375 36.3125 C-16.76921875 36.065 -17.57359375 35.8175 -18.40234375 35.5625 C-18.40234375 33.9125 -18.40234375 32.2625 -18.40234375 30.5625 C-22.69234375 30.5625 -26.98234375 30.5625 -31.40234375 30.5625 C-31.40234375 47.7225 -31.40234375 64.8825 -31.40234375 82.5625 C-33.71234375 82.5625 -36.02234375 82.5625 -38.40234375 82.5625 C-38.40234375 65.4025 -38.40234375 48.2425 -38.40234375 30.5625 C-41.70234375 30.5625 -45.00234375 30.5625 -48.40234375 30.5625 C-48.40234375 28.2525 -48.40234375 25.9425 -48.40234375 23.5625 C-44.93734375 23.0675 -44.93734375 23.0675 -41.40234375 22.5625 C-42.72234375 20.2525 -44.04234375 17.9425 -45.40234375 15.5625 C-34.30045049 -0.64338055 -19.4797455 -10.34218766 0 0 Z " fill="#090909" transform="translate(333.40234375,34.4375)"/>
<path d="M0 0 C6.3049013 3.69819058 9.2118021 9.5914905 11.5625 16.3125 C12.61250575 21.15076177 12.77785304 25.88397064 12.8125 30.8125 C12.833125 31.54597656 12.85375 32.27945313 12.875 33.03515625 C12.90952307 37.85975562 12.22256307 41.12871148 9.5625 45.3125 C6.30202371 46.94273814 4.18448965 46.7798535 0.5625 46.3125 C-3.47465041 43.59812804 -6.71746602 40.06682131 -10.0625 36.5625 C-15.7422727 31.18166271 -22.42520001 30.4173 -29.87890625 29.15625 C-33.32886874 28.3382567 -35.59014759 27.39101424 -38.4375 25.3125 C-40.09492597 21.99764807 -40.17130068 18.86861099 -39.4375 15.3125 C-32.26030538 2.7464483 -13.80206336 -6.37216757 0 0 Z " fill="#524B4B" transform="translate(70.4375,84.6875)"/>
<path d="M0 0 C2.625 2 2.625 2 4 5 C4.82280921 11.27392022 3.6278239 15.80308662 0 21 C-3.91906412 25.13911852 -7.80753018 27.6810953 -13.4375 28.5 C-17 28 -17 28 -19.9375 25.5625 C-22.25697081 22.26885145 -22.78662166 19.36407207 -22.55078125 15.375 C-21.20872276 9.58796764 -17.50182053 5.39942368 -13.25 1.4375 C-8.76075086 -0.54812943 -4.8286343 -0.93430766 0 0 Z " fill="#544D4D" transform="translate(103,53)"/>
<path d="M0 0 C3.68706793 2.76530095 4.75307584 4.28340225 5.40625 8.82421875 C5.64077627 16.61244532 4.56046981 21.6348111 -0.1875 27.875 C-3.26307946 30.19877114 -5.26496802 31.05630666 -9.06640625 31.34375 C-11.53833697 30.90429565 -12.33122574 30.08709391 -13.9375 28.1875 C-17.49099065 22.69574173 -17.63017476 18.48554856 -17 12 C-14.54464841 3.92669723 -8.9643346 -2.27723016 0 0 Z " fill="#544D4D" transform="translate(75,39)"/>
<path d="M0 0 C3.09504108 2.44724179 3.76278755 3.95626522 4.625 7.75 C3.55280438 13.32541723 0.61829891 17.97970763 -3.8984375 21.46484375 C-8.63612825 24.09585383 -12.64519468 24.71397404 -18 24 C-21.27356401 21.90156153 -21.87708366 20.40716036 -23 16.6875 C-23 11.15117861 -20.97412158 8.10387605 -17.3359375 4.2265625 C-12.08326438 -0.37763246 -6.84186997 -1.46062393 0 0 Z " fill="#554E4E" transform="translate(109,84)"/>
<path d="M0 0 C4.02166655 0.47313724 5.41061164 1.44800956 8.1875 4.375 C10.88762854 9.2166098 12.28068456 13.86858887 11.1875 19.375 C9.56920401 23.38220913 7.95779195 27.30530622 4.1640625 29.59765625 C1.43665135 30.67029423 0.10020551 30.99915118 -2.8125 30.375 C-6.65913839 26.90001749 -9.43150054 23.4393242 -10.0859375 18.17578125 C-10.35679866 11.53968273 -8.98692382 7.53610582 -4.8125 2.375 C-2.8125 0.375 -2.8125 0.375 0 0 Z " fill="#564F4F" transform="translate(41.8125,52.625)"/>
<path d="M0 0 C9.9 0 19.8 0 30 0 C30 8.91 30 17.82 30 27 C29.34 27 28.68 27 28 27 C27.278125 26.2575 26.55625 25.515 25.8125 24.75 C23.37658438 22.36821584 22.23596429 21.56555893 19.3125 20.25 C16.95173826 19.00882698 16.16275106 18.49667134 15.3203125 15.92578125 C15.06438085 14.34579504 14.81310276 12.76504823 14.56640625 11.18359375 C13.58195332 7.38835798 11.20873765 6.0203163 8 4 C5.35646124 2.82562217 2.75660463 1.90302565 0 1 C0 0.67 0 0.34 0 0 Z " fill="#F3F3F3" transform="translate(324,65)"/>
<path d="M0 0 C9.57 0 19.14 0 29 0 C29 8.91 29 17.82 29 27 C26.36 25.02 23.72 23.04 21 21 C20.05125 20.54625 19.1025 20.0925 18.125 19.625 C15.23714483 17.41664017 15.26762589 15.44143004 14.56640625 11.9921875 C13.59961793 8.59175962 11.76215075 7.11568994 9 5 C6.06134187 3.4961565 3.07459123 2.19902359 0 1 C0 0.67 0 0.34 0 0 Z " fill="#FBFBFB" transform="translate(156,65)"/>
<path d="M0 0 C0.99 0 1.98 0 3 0 C4.4783226 2.95664519 4.06032783 5.74229737 4 9 C6.97 9 9.94 9 13 9 C12.67 9.99 12.34 10.98 12 12 C9.69 12 7.38 12 5 12 C5.33 15.3 5.66 18.6 6 22 C4.68 22 3.36 22 2 22 C2 19.03 2 16.06 2 13 C0.68 13.495 -0.64 13.99 -2 14.5 C-6.54344645 16.03368319 -10.23300387 16.26001797 -15 16 C-14.67 16.66 -14.34 17.32 -14 18 C-10.4780279 18.08004482 -7.38018531 18.04005702 -4 17 C-4 17.99 -4 18.98 -4 20 C-7.98811841 22.6587456 -11.30908456 22.84673564 -16 22 C-18.5625 19.6875 -18.5625 19.6875 -20 17 C-20 16.01 -20 15.02 -20 14 C-19.34 14 -18.68 14 -18 14 C-17.731875 13.38125 -17.46375 12.7625 -17.1875 12.125 C-16 10 -16 10 -13 8 C-9.45776514 8.31627097 -6.37355726 8.87548091 -3 10 C-2.01 10 -1.02 10 0 10 C0 6.7 0 3.4 0 0 Z " fill="#AF5725" transform="translate(256,126)"/>
<path d="M0 0 C3.05709846 0.1273791 5.20726955 0.55078608 7.875 2.0625 C9.71816648 5.23684227 9.6362382 8.4865513 9 12 C7.3125 14.5 7.3125 14.5 5 16 C3.35 16 1.7 16 0 16 C0 19.3 0 22.6 0 26 C-0.99 26 -1.98 26 -3 26 C-3.67301289 22.75128084 -4.3372951 19.50083621 -5 16.25 C-5.19078125 15.32960937 -5.3815625 14.40921875 -5.578125 13.4609375 C-5.75859375 12.57148438 -5.9390625 11.68203125 -6.125 10.765625 C-6.29257812 9.94868164 -6.46015625 9.13173828 -6.6328125 8.29003906 C-7 6 -7 6 -7 2 C-6.401875 2.226875 -5.80375 2.45375 -5.1875 2.6875 C-4.465625 2.790625 -3.74375 2.89375 -3 3 C-2.319375 2.2575 -2.319375 2.2575 -1.625 1.5 C-1.08875 1.005 -0.5525 0.51 0 0 Z " fill="#AA4B16" transform="translate(333,132)"/>
<path d="M0 0 C1.40765625 -0.01160156 1.40765625 -0.01160156 2.84375 -0.0234375 C5.90579488 0.43586923 7.27603369 1.25305049 9.5 3.375 C10.25 5.75 10.25 5.75 9.5 8.375 C6.6318532 10.75647031 3.32835917 13.375 -0.5 13.375 C-0.5 15.685 -0.5 17.995 -0.5 20.375 C-1.49 20.375 -2.48 20.375 -3.5 20.375 C-4.16 15.425 -4.82 10.475 -5.5 5.375 C-6.49 6.86 -6.49 6.86 -7.5 8.375 C-8.49 8.045 -9.48 7.715 -10.5 7.375 C-10.13927741 4.75976121 -9.73940973 3.60178032 -7.796875 1.76171875 C-4.99867696 0.07233048 -3.24947785 -0.02678141 0 0 Z " fill="#AA4B16" transform="translate(225.5,129.625)"/>
<path d="M0 0 C2.5 1.625 2.5 1.625 4 4 C4.60024477 7.60146865 4.45562482 9.27859404 2.5 12.375 C-1.26897129 14.82483134 -3.54334931 14.5659239 -8 14 C-10.89292533 11.6669957 -11.01282406 9.9300506 -11.6875 6.25 C-11.790625 5.1775 -11.89375 4.105 -12 3 C-8.43988979 -0.56011021 -4.78124721 -0.87198976 0 0 Z " fill="#AA4C17" transform="translate(321,134)"/>
<path d="M0 0 C2.05078125 0.03255208 4.1015625 0.06510417 6.15234375 0.09765625 C6.15234375 1.08765625 6.15234375 2.07765625 6.15234375 3.09765625 C4.17234375 3.09765625 2.19234375 3.09765625 0.15234375 3.09765625 C0.15234375 3.75765625 0.15234375 4.41765625 0.15234375 5.09765625 C1.23515625 5.43796875 1.23515625 5.43796875 2.33984375 5.78515625 C5.82485856 7.4114965 7.79869645 9.05175974 10.15234375 12.09765625 C10.08984375 15.34765625 10.08984375 15.34765625 9.15234375 18.09765625 C6.29909938 19.52427844 4.31779826 19.40799493 1.15234375 19.09765625 C-1.72265625 17.41015625 -1.72265625 17.41015625 -3.84765625 15.09765625 C-4.16015625 12.34765625 -4.16015625 12.34765625 -3.84765625 10.09765625 C-2.85765625 10.09765625 -1.86765625 10.09765625 -0.84765625 10.09765625 C-0.16703125 11.30421875 -0.16703125 11.30421875 0.52734375 12.53515625 C1.9188656 15.34648532 1.9188656 15.34648532 4.83984375 15.91015625 C5.60296875 15.97203125 6.36609375 16.03390625 7.15234375 16.09765625 C5.69378728 12.41119484 3.8500533 10.93621654 0.52734375 8.84765625 C-0.28992188 8.326875 -1.1071875 7.80609375 -1.94921875 7.26953125 C-2.57570313 6.8828125 -3.2021875 6.49609375 -3.84765625 6.09765625 C-2.77957394 0.14691194 -2.77957394 0.14691194 0 0 Z " fill="#AA4A15" transform="translate(279.84765625,128.90234375)"/>
<path d="M0 0 C0.99 0.33 1.98 0.66 3 1 C3 4.63 3 8.26 3 12 C3.66 12 4.32 12 5 12 C5.33 10.68 5.66 9.36 6 8 C7.98 7.67 9.96 7.34 12 7 C14.70272533 9.87164566 15.94791837 11.30991841 16.25 15.3125 C16.1675 16.199375 16.085 17.08625 16 18 C14.68 18 13.36 18 12 18 C11.67 15.36 11.34 12.72 11 10 C7.93600134 10.66970511 7.93600134 10.66970511 6.83203125 12.84765625 C6.49558594 13.57855469 6.15914063 14.30945313 5.8125 15.0625 C5.46832031 15.79597656 5.12414062 16.52945313 4.76953125 17.28515625 C4.51558594 17.85105469 4.26164062 18.41695312 4 19 C3.01 19 2.02 19 1 19 C0.66191314 16.93827387 0.32972639 14.8755797 0 12.8125 C-0.185625 11.66394531 -0.37125 10.51539063 -0.5625 9.33203125 C-0.93608948 6.48674706 -1.1673778 3.86111427 -1 1 C-0.67 0.67 -0.34 0.34 0 0 Z " fill="#AA4B16" transform="translate(292,129)"/>
<path d="M0 0 C0.99 0 1.98 0 3 0 C4.4783226 2.95664519 4.06032783 5.74229737 4 9 C6.97 9 9.94 9 13 9 C12.67 9.99 12.34 10.98 12 12 C9.69 12 7.38 12 5 12 C5.33 15.3 5.66 18.6 6 22 C4.68 22 3.36 22 2 22 C2 19.03 2 16.06 2 13 C0.02 13 -1.96 13 -4 13 C-3.67 12.01 -3.34 11.02 -3 10 C-2.01 10 -1.02 10 0 10 C0 6.7 0 3.4 0 0 Z " fill="#AC4F1B" transform="translate(256,126)"/>
<path d="M0 0 C2.93453261 0.36681658 3.86437246 0.86437246 6 3 C6.25 5.5 6.25 5.5 6 8 C4 10 4 10 1.4375 10.1875 C-1 10 -1 10 -2 9 C-2.1875 5.5625 -2.1875 5.5625 -2 2 C-1.34 1.34 -0.68 0.68 0 0 Z " fill="#F7EFEB" transform="translate(333,135)"/>
<path d="M0 0 C2.5625 0.1875 2.5625 0.1875 4.5625 2.1875 C4.00694444 6.74305556 4.00694444 6.74305556 2.5625 8.1875 C0.0625 8.3125 0.0625 8.3125 -2.4375 8.1875 C-3.4375 7.1875 -3.4375 7.1875 -3.5625 4.1875 C-3.39891479 0.26145498 -3.39891479 0.26145498 0 0 Z " fill="#FCF9F7" transform="translate(317.4375,136.8125)"/>
<path d="M0 0 C3.16115776 1.36983503 3.9927092 1.9890638 6 5 C6.125 8.1875 6.125 8.1875 6 11 C4.68 11 3.36 11 2 11 C0 3.375 0 3.375 0 0 Z " fill="#AE5421" transform="translate(302,136)"/>
<path d="M0 0 C2.875 -0.1875 2.875 -0.1875 6 0 C6.66 0.99 7.32 1.98 8 3 C5.84832931 5.47442129 4.28212246 6.56238367 1 7 C0 6 0 6 -0.0625 2.9375 C-0.041875 1.968125 -0.02125 0.99875 0 0 Z " fill="#F8F1ED" transform="translate(224,133)"/>
<path d="M0 0 C2.91517292 1.07401108 4.77810176 1.77810176 7 4 C7 4.99 7 5.98 7 7 C4.15673536 7.23053497 2.53854651 7.35903101 0.125 5.75 C-1 4 -1 4 -0.6875 1.8125 C-0.460625 1.214375 -0.23375 0.61625 0 0 Z " fill="#F2E4DC" transform="translate(280,138)"/>
<path d="M0 0 C-1.125 1.5 -1.125 1.5 -3 3 C-6.1875 3.1875 -6.1875 3.1875 -9 3 C-9.33 2.01 -9.66 1.02 -10 0 C-2.25 -1.125 -2.25 -1.125 0 0 Z " fill="#F4E9E3" transform="translate(251,142)"/>
</svg>
