<?xml version="1.0" encoding="UTF-8"?>
<svg version="1.1" xmlns="http://www.w3.org/2000/svg" width="500" height="500">
<path d="M0 0 C165 0 330 0 500 0 C500 165 500 330 500 500 C335 500 170 500 0 500 C0 335 0 170 0 0 Z " fill="#FEFEFE" transform="translate(0,0)"/>
<path d="M0 0 C3.5747899 1.5180728 5.85811724 3.61574711 8.58496094 6.35791016 C9.93590851 7.70908432 9.93590851 7.70908432 11.31414795 9.08755493 C12.28766481 10.07128408 13.26107125 11.0551225 14.234375 12.0390625 C15.23713161 13.04555128 16.24033222 14.05159789 17.24395752 15.05722046 C19.87873813 17.69962147 22.50745611 20.34797428 25.13494873 22.99761963 C27.81939688 25.70256052 30.50954622 28.40181821 33.19921875 31.1015625 C38.47173618 36.39550174 43.73786057 41.69574283 49 47 C47 48 47 48 43.609375 47.078125 C38.17404056 45.6224944 32.84585054 45.69881044 27.25 45.75 C26.17959473 45.75749268 25.10918945 45.76498535 24.00634766 45.77270508 C10.68882148 45.95448312 -4.14879706 47.5031101 -15 56 C-14.34515625 55.78778809 -13.6903125 55.57557617 -13.015625 55.35693359 C-5.88245399 53.20715907 0.57342992 52.53908852 8 52.625 C9.50433594 52.60759766 9.50433594 52.60759766 11.0390625 52.58984375 C20.51317932 52.62656513 28.86263085 54.86708288 37.5625 58.5625 C38.55378906 58.97628906 39.54507813 59.39007813 40.56640625 59.81640625 C43 61 43 61 45 63 C43.92854736 62.97643433 43.92854736 62.97643433 42.83544922 62.95239258 C18.14566555 62.48103131 -2.36943773 64.8336546 -22 81 C-22.80050781 81.62648438 -23.60101563 82.25296875 -24.42578125 82.8984375 C-30.38245861 87.80393651 -34.23561643 93.30355888 -38 100 C-38.45117188 100.76828125 -38.90234375 101.5365625 -39.3671875 102.328125 C-49.31573047 120.49502955 -51.56752609 143.18611963 -46.60791016 163.27099609 C-45.61284991 166.61264017 -44.38863032 169.80369974 -43 173 C-42.71060547 173.68336426 -42.42121094 174.36672852 -42.12304688 175.07080078 C-38.03416475 184.4964988 -33.01008827 192.41635905 -26 200 C-25.41476563 200.65355469 -24.82953125 201.30710937 -24.2265625 201.98046875 C-17.37244621 209.26900086 -8.79975397 214.38756857 0 219 C-7.23499295 221.81568024 -18.40451523 217.20165242 -25.21875 214.30078125 C-48.17382363 203.70846532 -64.82112006 185.46069634 -74.18359375 162.0390625 C-76.77458958 154.80705216 -78.02516477 147.60049332 -79 140 C-79.02934144 143.97915085 -79.04691265 147.95827337 -79.0625 151.9375 C-79.07087891 153.05447266 -79.07925781 154.17144531 -79.08789062 155.32226562 C-79.10641749 161.63992667 -78.84339417 167.73763227 -78 174 C-90.93173137 158.43681167 -91.17188265 133.98559412 -90 115 C-86.8055486 88.07133513 -69.08402134 68.7499898 -50.68359375 50.48828125 C-49.21628111 49.02470702 -47.74941552 47.56068448 -46.28297424 46.09623718 C-42.45538916 42.2762234 -38.6218331 38.46225871 -34.78692627 34.64959717 C-30.86142989 30.74470065 -26.94171507 26.83400972 -23.02148438 22.92382812 C-15.35324784 15.27692651 -7.67867965 7.63641406 0 0 Z " fill="#020202" transform="translate(252,110)"/>
<path d="M0 0 C1.27034913 2.54069827 0.72702668 3.32148064 0 6 C-1.13659328 27.85756301 4.50851739 46.4454699 18.5625 63.5625 C27.7843396 73.45824327 39.14950019 79.99338029 52 84 C52.99 84 53.98 84 55 84 C54.12859375 83.55011719 53.2571875 83.10023438 52.359375 82.63671875 C38.88709248 75.45416655 29.25549554 66.08356362 20 54 C20.33 53.34 20.66 52.68 21 52 C21.81984375 52.34933594 22.6396875 52.69867188 23.484375 53.05859375 C24.56203125 53.51363281 25.6396875 53.96867187 26.75 54.4375 C28.35101563 55.11619141 28.35101563 55.11619141 29.984375 55.80859375 C38.46613223 59.15954706 48.45124529 59.41380011 57 56.03515625 C61.99769449 53.4484589 65.71711585 50.38163038 67.9375 45.125 C69.71875017 39.26914007 69.90439049 34.40455585 67.25 28.8125 C65.47651793 25.60123067 63.42007629 22.76580148 61 20 C73.62648172 23.20236855 83.27565169 31.20995032 89.98046875 42.265625 C96.77120899 54.59491225 99.53289283 69.35676913 95.875 83.1875 C92.60232304 92.59262305 87.55579596 100.58329852 78.6015625 105.25 C67.44610332 109.96080974 55.24131037 109.03769515 44 105 C34.39307553 100.87708331 27.27769215 94.34766996 20 87 C28.18482705 100.38118864 36.88552766 107.57520462 51 114 C51 114.33 51 114.66 51 115 C36.51557852 115.91001601 26.04585771 111.2177472 15 102 C-0.35895825 87.7040205 -10.17377923 67.71754277 -11.28515625 46.67578125 C-11.79121035 30.08187255 -8.43508729 15.8129816 -1 1 C-0.67 0.67 -0.34 0.34 0 0 Z " fill="#030303" transform="translate(220,208)"/>
<path d="M0 0 C0 8.98426194 -10.15422435 17.90333269 -16 24 C-16.495 24.495 -16.495 24.495 -17 25 C-16.21496094 25.36351562 -15.42992187 25.72703125 -14.62109375 26.1015625 C-1.9053244 32.18640918 4.96766318 39.08531525 11 52 C12 55 12 55 11 58 C10.63390625 57.56429687 10.2678125 57.12859375 9.890625 56.6796875 C4.7585911 51.03445021 -1.09524705 48.09523408 -8 45 C-6.989375 45.825 -5.97875 46.65 -4.9375 47.5 C3.49950568 54.81207159 8.45679203 62.3703761 12 73 C12.06740865 74.56118428 12.08514456 76.1250252 12.0625 77.6875 C12.05347656 78.49574219 12.04445313 79.30398437 12.03515625 80.13671875 C12.02355469 80.75160156 12.01195312 81.36648437 12 82 C11.46375 81.319375 10.9275 80.63875 10.375 79.9375 C9.199375 78.4834375 9.199375 78.4834375 8 77 C7.57589844 76.43410156 7.15179688 75.86820312 6.71484375 75.28515625 C2.85659513 70.37368099 -1.40435088 67.69834635 -7 65 C-6.48050781 65.4125 -5.96101563 65.825 -5.42578125 66.25 C2.34228729 72.68270741 7.23429192 79.5084218 8.44140625 89.7421875 C9.27356666 107.97246027 0.01433361 123.75037743 -11.5625 137.375 C-12.366875 138.24125 -13.17125 139.1075 -14 140 C-14.33 139.34 -14.66 138.68 -15 138 C-14.14213569 135.53025379 -13.07006321 133.18898826 -12.0078125 130.80078125 C-7.61449185 118.59143665 -8.98039535 103.74202503 -14 92 C-20.78137433 77.97371436 -30.70620577 68.75113552 -45.27294922 63.12158203 C-51.66475176 60.99013587 -57.66355348 60.45910729 -64.375 60.5 C-65.88574097 60.50205444 -65.88574097 60.50205444 -67.42700195 60.50415039 C-75.40523644 60.66849725 -80.96511187 62.20240552 -88 66 C-90.23828125 66.72265625 -90.23828125 66.72265625 -92 67 C-92.33 66.67 -92.66 66.34 -93 66 C-93 62.61962623 -92.81158066 60.04587627 -90.6875 57.30859375 C-86.33244452 53.28621612 -81.68313762 51.46911041 -76 50 C-76.33 49.34 -76.66 48.68 -77 48 C-77.46274031 43.92788529 -77.14956516 40.84052405 -74.609375 37.5 C-67.64643231 31.01026701 -57.54203964 28.85769479 -48.64868164 26.3203125 C-40.39750646 23.92583557 -32.72956189 20.72827654 -25 17 C-24.01773438 16.52949219 -23.03546875 16.05898437 -22.0234375 15.57421875 C-14.23197355 11.58867163 -6.22412548 6.22412548 0 0 Z " fill="#040404" transform="translate(333,163)"/>
<path d="M0 0 C-1.50383297 4.21073233 -4.20664956 5.83237117 -8 8 C-8.99 8 -9.98 8 -11 8 C-9.24437387 3.08424684 -5.22219793 0 0 0 Z " fill="#E0E0E0" transform="translate(279,199)"/>
<path d="M0 0 C1.56902561 3.13805122 0.56136446 6.26618588 0.0625 9.625 C-0.08735352 10.68460938 -0.08735352 10.68460938 -0.24023438 11.765625 C-0.48791959 13.51121607 -0.74323871 15.25572084 -1 17 C-1.33 17 -1.66 17 -2 17 C-2.22786458 14.98177083 -2.45572917 12.96354167 -2.68359375 10.9453125 C-2.91292961 8.92595684 -2.91292961 8.92595684 -4 7 C-3.22265625 5.2734375 -3.22265625 5.2734375 -2.0625 3.375 C-1.381875 2.26125 -0.70125 1.1475 0 0 Z " fill="#3A3A3A" transform="translate(220,208)"/>
<path d="M0 0 C2.97 0.99 5.94 1.98 9 3 C4.44968209 4.13757948 2.36915594 3.4283779 -2 2 C-1.34 1.34 -0.68 0.68 0 0 Z " fill="#CECECE" transform="translate(271,290)"/>
</svg>
